<?xml version="1.0" encoding="UTF-8"?>
<svg id="Calque_1" data-name="Calque 1" xmlns="http://www.w3.org/2000/svg" viewBox="0 0 974.17 806.37">
  <line x1="92.74" y1=".15" x2="96.04" y2="638.32" fill="none" stroke="#052962" stroke-miterlimit="10" stroke-width=".5"/>
  <line x1="847.63" y1="638.16" x2="92.76" y2="637.04" fill="none" stroke="#052962" stroke-miterlimit="10" stroke-width=".5"/>
  <line x1="846.13" y1="460.01" x2="93.13" y2="458.63" fill="none" stroke="#052962" stroke-miterlimit="10" stroke-width=".5"/>
  <line x1="846.05" y1="282.93" x2="93.04" y2="281.55" fill="none" stroke="#052962" stroke-miterlimit="10" stroke-width=".5"/>
  <line x1="846.05" y1="104.37" x2="93.04" y2="102.99" fill="none" stroke="#052962" stroke-miterlimit="10" stroke-width=".5"/>
  <g>
    <path d="M142.41,686.91h-.79s-.99-.99-.99-.99c-2.33-2.4-3.56-3.48-4.99-3.48-.96,0-1.85.48-1.83,1.9,0,.86.45,1.57.82,2l-.9.42c-.56-.65-.98-1.58-.99-2.67-.02-2.04,1.37-2.92,2.73-2.93,1.75-.02,3.18,1.24,5.12,3.22l.71.75h.03s-.04-4.26-.04-4.26h1.06s.06,6.04.06,6.04Z" fill="#052962" stroke-width="0"/>
    <path d="M137.44,673.17c3.22-.03,5.02,1.15,5.04,3.25.02,1.85-1.71,3.12-4.84,3.18-3.18.03-4.94-1.32-4.96-3.25s1.75-3.15,4.77-3.18ZM137.64,678.32c2.46-.02,3.86-.79,3.85-1.96-.01-1.31-1.55-1.93-3.97-1.9-2.33.02-3.86.63-3.85,1.96.01,1.12,1.39,1.93,3.97,1.9Z" fill="#052962" stroke-width="0"/>
    <path d="M142.27,671.94h-.79s-.99-.99-.99-.99c-2.33-2.4-3.56-3.48-4.99-3.48-.96,0-1.85.48-1.83,1.9,0,.86.45,1.57.82,2l-.9.42c-.56-.65-.98-1.58-.99-2.67-.02-2.04,1.37-2.92,2.73-2.93,1.75-.02,3.18,1.24,5.12,3.22l.71.75h.03s-.04-4.26-.04-4.26h1.06s.06,6.04.06,6.04Z" fill="#052962" stroke-width="0"/>
    <path d="M142.16,660.49l-2.58.02.04,4.4h-.85s-6.09-4.16-6.09-4.16v-1.39s5.88-.06,5.88-.06v-1.33s.99,0,.99,0v1.33s2.59-.02,2.59-.02v1.21ZM138.58,660.52l-3.17.03c-.5,0-.99,0-1.49-.03v.04c.56.29.97.52,1.41.77l3.25,2.29h.03s-.03-3.11-.03-3.11Z" fill="#052962" stroke-width="0"/>
  </g>
  <g>
    <path d="M252.77,686.23h-.79s-.99-.98-.99-.98c-2.34-2.39-3.58-3.46-5.01-3.45-.96.01-1.85.49-1.82,1.91.01.86.46,1.57.83,2l-.9.42c-.56-.65-.99-1.58-1-2.67-.03-2.04,1.36-2.92,2.71-2.94,1.75-.03,3.18,1.22,5.14,3.19l.71.75h.03s-.06-4.26-.06-4.26l1.06-.02.09,6.05Z" fill="#052962" stroke-width="0"/>
    <path d="M247.72,672.52c3.22-.05,5.02,1.12,5.05,3.22.03,1.85-1.69,3.13-4.82,3.21-3.18.05-4.95-1.3-4.98-3.22s1.73-3.16,4.75-3.21ZM247.94,677.67c2.46-.04,3.85-.82,3.84-1.98-.02-1.31-1.56-1.92-3.98-1.88-2.33.03-3.86.65-3.84,1.98.02,1.12,1.4,1.92,3.98,1.88Z" fill="#052962" stroke-width="0"/>
    <path d="M252.54,671.26h-.79s-.99-.98-.99-.98c-2.34-2.39-3.58-3.46-5.01-3.45-.96.01-1.85.49-1.82,1.91.01.86.46,1.57.83,2l-.9.42c-.56-.65-.99-1.58-1-2.67-.03-2.04,1.36-2.92,2.71-2.94,1.75-.03,3.18,1.22,5.14,3.19l.71.75h.03s-.06-4.26-.06-4.26l1.06-.02.09,6.05Z" fill="#052962" stroke-width="0"/>
    <path d="M243.95,658.24l.05,3.62,2.44.33c-.03-.22-.06-.42-.07-.77-.01-.73.14-1.46.48-2.05.41-.75,1.22-1.38,2.42-1.39,1.85-.03,3.26,1.43,3.29,3.48.02,1.04-.26,1.92-.55,2.37l-.98-.31c.23-.4.51-1.17.49-2.04-.02-1.21-.82-2.23-2.09-2.22-1.23.03-2.09.86-2.06,2.76,0,.54.07.96.12,1.31l-4.56-.54-.07-4.53,1.08-.02Z" fill="#052962" stroke-width="0"/>
  </g>
  <g>
    <path d="M369.33,686.7l-.79.02-1-.98c-2.36-2.37-3.61-3.43-5.04-3.42-.96.02-1.84.51-1.81,1.92.02.86.47,1.56.85,1.99l-.89.43c-.57-.64-1-1.57-1.02-2.66-.05-2.04,1.33-2.93,2.69-2.96,1.75-.04,3.19,1.2,5.16,3.15l.72.74h.03s-.1-4.26-.1-4.26l1.06-.02.14,6.05Z" fill="#052962" stroke-width="0"/>
    <path d="M364.18,673.02c3.22-.07,5.03,1.08,5.08,3.18.04,1.85-1.67,3.15-4.8,3.25-3.18.07-4.96-1.26-5-3.18s1.71-3.18,4.73-3.24ZM364.44,678.17c2.46-.06,3.85-.84,3.82-2.01-.03-1.31-1.57-1.9-4-1.85-2.33.05-3.85.68-3.82,2.01.03,1.12,1.41,1.91,4,1.85Z" fill="#052962" stroke-width="0"/>
    <path d="M368.99,671.73l-.79.02-1-.98c-2.36-2.37-3.61-3.43-5.04-3.42-.96.02-1.84.51-1.81,1.92.02.86.47,1.56.85,1.99l-.89.43c-.57-.64-1-1.57-1.02-2.66-.05-2.04,1.33-2.93,2.69-2.96,1.75-.04,3.19,1.2,5.16,3.15l.72.74h.03s-.1-4.26-.1-4.26l1.06-.02.14,6.05Z" fill="#052962" stroke-width="0"/>
    <path d="M360.13,659.03c0,.26.01.6.08.96.38,2,1.88,3.04,3.44,3.22v-.04c-.61-.44-1.12-1.22-1.15-2.27-.04-1.68,1.15-2.88,3-2.93,1.74-.04,3.37,1.1,3.41,3.07s-1.5,3.39-3.96,3.45c-1.87.04-3.35-.6-4.31-1.51-.79-.77-1.3-1.81-1.47-3-.07-.38-.09-.7-.09-.93l1.05-.02ZM365.6,659.27c-1.36.03-2.16.82-2.13,2,.02.77.52,1.48,1.21,1.81.15.09.34.14.57.13,1.56-.07,2.7-.8,2.67-2.15-.02-1.11-.96-1.83-2.32-1.8Z" fill="#052962" stroke-width="0"/>
  </g>
  <g>
    <path d="M481.23,686.31l-.79.02-1.01-.98c-2.38-2.35-3.63-3.41-5.06-3.38-.96.03-1.84.52-1.8,1.94.03.86.48,1.56.86,1.99l-.89.44c-.57-.64-1.01-1.56-1.04-2.65-.06-2.04,1.31-2.94,2.67-2.98,1.75-.05,3.2,1.17,5.19,3.11l.72.74h.03s-.13-4.26-.13-4.26l1.06-.03.18,6.05Z" fill="#052962" stroke-width="0"/>
    <path d="M475.97,672.68c3.22-.1,5.04,1.04,5.1,3.14.06,1.85-1.64,3.16-4.78,3.28-3.18.1-4.97-1.22-5.03-3.15s1.68-3.19,4.7-3.28ZM476.28,677.82c2.46-.07,3.84-.87,3.81-2.04-.04-1.31-1.59-1.89-4.01-1.82s-3.85.71-3.81,2.04c.03,1.12,1.43,1.9,4.01,1.82Z" fill="#052962" stroke-width="0"/>
    <path d="M480.78,671.35l-.79.02-1.01-.98c-2.38-2.35-3.63-3.41-5.06-3.38-.96.03-1.84.52-1.8,1.94.03.86.48,1.56.86,1.99l-.89.44c-.57-.64-1.01-1.56-1.04-2.65-.06-2.04,1.31-2.94,2.67-2.98,1.75-.05,3.2,1.17,5.19,3.11l.72.74h.03s-.13-4.26-.13-4.26l1.06-.03.18,6.05Z" fill="#052962" stroke-width="0"/>
    <path d="M470.89,658l.85-.03,8.76,3.87.04,1.33-8.51-3.86h-.03s.14,4.64.14,4.64l-1.06.03-.18-5.98Z" fill="#052962" stroke-width="0"/>
  </g>
  <g>
    <path d="M594.96,686.73h-.79s-.97-1.02-.97-1.02c-2.29-2.43-3.51-3.53-4.94-3.55-.96,0-1.86.46-1.86,1.87,0,.86.43,1.58.79,2.02l-.91.4c-.55-.66-.95-1.6-.95-2.69.01-2.04,1.42-2.9,2.77-2.89,1.75,0,3.16,1.28,5.07,3.29l.7.76h.03s.02-4.26.02-4.26h1.06s-.03,6.06-.03,6.06Z" fill="#052962" stroke-width="0"/>
    <path d="M590.18,672.92c3.22.02,5,1.22,4.99,3.32,0,1.85-1.75,3.1-4.89,3.11-3.18-.02-4.92-1.4-4.91-3.32s1.8-3.13,4.81-3.11ZM590.3,678.07c2.46.01,3.87-.74,3.88-1.91,0-1.31-1.52-1.95-3.94-1.96s-3.87.58-3.88,1.91c0,1.12,1.36,1.95,3.94,1.96Z" fill="#052962" stroke-width="0"/>
    <path d="M595.03,671.76h-.79s-.97-1.02-.97-1.02c-2.29-2.43-3.51-3.53-4.94-3.55-.96,0-1.86.46-1.86,1.87,0,.86.43,1.58.79,2.02l-.91.4c-.55-.66-.95-1.6-.95-2.69.01-2.04,1.42-2.9,2.77-2.89,1.75,0,3.16,1.28,5.07,3.29l.7.76h.03s.02-4.26.02-4.26h1.06s-.03,6.06-.03,6.06Z" fill="#052962" stroke-width="0"/>
    <path d="M592.66,664.38c-1.2,0-2.04-.72-2.53-1.89h-.04c-.5,1.06-1.32,1.51-2.14,1.51-1.5,0-2.52-1.28-2.51-2.94,0-1.84,1.17-2.75,2.35-2.74.8,0,1.66.4,2.21,1.57h.04c.47-1.18,1.31-1.9,2.46-1.9,1.65,0,2.75,1.43,2.74,3.24-.01,1.98-1.2,3.17-2.58,3.17ZM592.63,659.27c-1.15,0-1.71.79-2.08,2.08.32,1.11,1.04,1.71,1.95,1.72.96.05,1.81-.68,1.82-1.89s-.71-1.9-1.68-1.91ZM587.87,662.78c.95,0,1.46-.71,1.76-1.8-.27-.82-.85-1.45-1.71-1.45-.76,0-1.55.44-1.55,1.6,0,1.06.69,1.65,1.51,1.66Z" fill="#052962" stroke-width="0"/>
  </g>
  <g>
    <path d="M709.37,686.69h-.79s-.99-.99-.99-.99c-2.33-2.4-3.56-3.48-4.99-3.48-.96,0-1.85.48-1.83,1.9,0,.86.45,1.57.82,2l-.9.42c-.56-.65-.98-1.58-.99-2.67-.02-2.04,1.37-2.92,2.73-2.93,1.75-.02,3.18,1.24,5.12,3.22l.71.75h.03s-.04-4.26-.04-4.26h1.06s.06,6.04.06,6.04Z" fill="#052962" stroke-width="0"/>
    <path d="M704.39,672.95c3.22-.03,5.01,1.15,5.03,3.25.02,1.85-1.71,3.12-4.84,3.18-3.18.03-4.94-1.32-4.96-3.25-.02-2,1.75-3.15,4.77-3.18ZM704.59,678.1c2.46-.02,3.86-.8,3.85-1.96-.01-1.31-1.55-1.92-3.97-1.9-2.33.02-3.86.63-3.85,1.96.01,1.12,1.39,1.93,3.97,1.9Z" fill="#052962" stroke-width="0"/>
    <path d="M709.22,671.72h-.79s-.99-.99-.99-.99c-2.33-2.4-3.56-3.48-4.99-3.48-.96,0-1.85.48-1.83,1.9,0,.86.45,1.57.82,2l-.9.42c-.56-.65-.98-1.58-.99-2.67-.02-2.04,1.37-2.92,2.73-2.93,1.75-.02,3.18,1.24,5.12,3.22l.71.75h.03s-.04-4.26-.04-4.26h1.06s.06,6.04.06,6.04Z" fill="#052962" stroke-width="0"/>
    <path d="M708.24,663.5c.03-.28,0-.6-.05-1.04-.11-.74-.42-1.44-.94-1.97-.57-.62-1.41-1.07-2.54-1.23v.04c.65.52,1.03,1.27,1.04,2.22.02,1.71-1.26,2.81-2.88,2.83-1.79.02-3.38-1.26-3.4-3.21s1.55-3.15,3.97-3.17c2.09-.02,3.55.67,4.46,1.59.72.72,1.17,1.72,1.29,2.75.08.47.1.87.08,1.18h-1.05ZM702.78,663.08c1.18-.01,2.01-.73,1.99-1.84,0-.86-.44-1.53-1.01-1.86-.12-.07-.26-.11-.47-.11-1.62.02-2.85.62-2.84,1.97.01,1.09.98,1.86,2.32,1.84Z" fill="#052962" stroke-width="0"/>
  </g>
  <g>
    <path d="M817.87,686.65h-.79s-.99-.98-.99-.98c-2.34-2.38-3.59-3.46-5.02-3.45-.96.02-1.84.5-1.82,1.91.01.86.46,1.57.84,2l-.9.42c-.57-.65-.99-1.57-1.01-2.67-.03-2.04,1.35-2.93,2.71-2.95,1.75-.03,3.19,1.22,5.14,3.18l.71.75h.03s-.07-4.26-.07-4.26l1.06-.02.1,6.05Z" fill="#052962" stroke-width="0"/>
    <path d="M812.8,672.95c3.22-.05,5.02,1.11,5.06,3.21.03,1.85-1.68,3.14-4.82,3.22-3.18.05-4.95-1.29-4.98-3.22-.03-2,1.73-3.17,4.75-3.22ZM813.03,678.09c2.46-.04,3.85-.82,3.83-1.99-.02-1.31-1.56-1.91-3.98-1.87s-3.85.66-3.83,1.99c.02,1.12,1.4,1.92,3.98,1.87Z" fill="#052962" stroke-width="0"/>
    <path d="M816.15,671.4c.23-.37.58-1.22.56-2.11-.03-1.65-1.09-2.14-1.87-2.11-1.33.04-1.88,1.24-1.86,2.48v.71s-.95.02-.95.02v-.71c-.03-.93-.53-2.11-1.65-2.09-.76.01-1.42.5-1.4,1.68.01.76.36,1.48.66,1.89l-.93.35c-.37-.49-.75-1.45-.77-2.47-.03-1.87,1.06-2.73,2.22-2.75.98-.02,1.82.55,2.26,1.71h.03c.21-1.17,1.07-2.13,2.4-2.16,1.52-.02,2.86,1.13,2.9,3.41.02,1.06-.3,2-.6,2.47l-1-.33Z" fill="#052962" stroke-width="0"/>
    <path d="M812.56,657.97c3.22-.05,5.02,1.11,5.06,3.21.03,1.85-1.68,3.14-4.82,3.22-3.18.05-4.95-1.29-4.98-3.22s1.73-3.17,4.75-3.22ZM812.79,663.12c2.46-.04,3.85-.82,3.83-1.99-.02-1.31-1.56-1.91-3.98-1.87-2.33.04-3.85.66-3.83,1.99.02,1.12,1.4,1.92,3.98,1.87Z" fill="#052962" stroke-width="0"/>
  </g>
  <g id="EST_VT">
    <g>
      <path d="M2.54,108.47v-9.78l.47.5H.13v-.93h3.46v10.22h-1.05Z" fill="#052962" stroke-width="0"/>
      <path d="M13.08,108.55c-.73,0-1.43-.12-2.09-.36-.66-.24-1.19-.56-1.58-.96l.51-.83c.32.34.76.62,1.32.85.56.22,1.17.34,1.82.34.87,0,1.53-.19,1.98-.58s.68-.89.68-1.51c0-.44-.1-.81-.31-1.13-.21-.32-.56-.56-1.06-.74-.5-.18-1.18-.26-2.04-.26h-2.17l.53-5.12h5.59v.93h-5.17l.54-.51-.45,4.29-.54-.53h1.91c1.03,0,1.86.13,2.48.38.62.25,1.07.61,1.35,1.06.28.45.42.98.42,1.58s-.14,1.1-.41,1.57c-.27.47-.68.84-1.23,1.12-.54.27-1.24.41-2.07.41Z" fill="#052962" stroke-width="0"/>
      <path d="M22.18,108.55c-.79,0-1.49-.21-2.1-.62-.61-.41-1.09-1.01-1.45-1.78-.35-.77-.53-1.71-.53-2.79s.17-2.02.53-2.79.83-1.37,1.45-1.78c.61-.41,1.31-.62,2.1-.62s1.49.21,2.1.62c.61.41,1.1,1.01,1.45,1.78.35.77.53,1.71.53,2.79s-.18,2.02-.53,2.79c-.36.77-.84,1.37-1.45,1.78-.61.41-1.31.62-2.1.62ZM22.18,107.59c.6,0,1.13-.16,1.58-.49.45-.33.8-.8,1.05-1.43s.38-1.4.38-2.31-.13-1.69-.38-2.31-.6-1.1-1.05-1.43c-.45-.33-.97-.49-1.58-.49s-1.1.16-1.56.49c-.46.33-.81.8-1.07,1.43-.25.63-.38,1.4-.38,2.31s.13,1.69.38,2.31c.25.63.61,1.1,1.07,1.43.46.33.98.49,1.56.49Z" fill="#052962" stroke-width="0"/>
      <path d="M31.84,108.55c-.79,0-1.49-.21-2.1-.62-.61-.41-1.09-1.01-1.45-1.78-.35-.77-.53-1.71-.53-2.79s.17-2.02.53-2.79.83-1.37,1.45-1.78c.61-.41,1.31-.62,2.1-.62s1.49.21,2.1.62c.61.41,1.1,1.01,1.45,1.78.35.77.53,1.71.53,2.79s-.18,2.02-.53,2.79c-.36.77-.84,1.37-1.45,1.78-.61.41-1.31.62-2.1.62ZM31.84,107.59c.6,0,1.13-.16,1.58-.49.45-.33.8-.8,1.05-1.43s.38-1.4.38-2.31-.13-1.69-.38-2.31-.6-1.1-1.05-1.43c-.45-.33-.97-.49-1.58-.49s-1.1.16-1.56.49c-.46.33-.81.8-1.07,1.43-.25.63-.38,1.4-.38,2.31s.13,1.69.38,2.31c.25.63.61,1.1,1.07,1.43.46.33.98.49,1.56.49Z" fill="#052962" stroke-width="0"/>
      <path d="M45.33,108.55c-.79,0-1.49-.21-2.1-.62-.61-.41-1.09-1.01-1.45-1.78-.35-.77-.53-1.71-.53-2.79s.17-2.02.53-2.79.83-1.37,1.45-1.78c.61-.41,1.31-.62,2.1-.62s1.49.21,2.1.62c.61.41,1.1,1.01,1.45,1.78.35.77.53,1.71.53,2.79s-.18,2.02-.53,2.79c-.36.77-.84,1.37-1.45,1.78-.61.41-1.31.62-2.1.62ZM45.33,107.59c.6,0,1.13-.16,1.58-.49.45-.33.8-.8,1.05-1.43s.38-1.4.38-2.31-.13-1.69-.38-2.31-.6-1.1-1.05-1.43c-.45-.33-.97-.49-1.58-.49s-1.1.16-1.56.49c-.46.33-.81.8-1.07,1.43-.25.63-.38,1.4-.38,2.31s.13,1.69.38,2.31c.25.63.61,1.1,1.07,1.43.46.33.98.49,1.56.49Z" fill="#052962" stroke-width="0"/>
      <path d="M54.99,108.55c-.79,0-1.49-.21-2.1-.62-.61-.41-1.09-1.01-1.45-1.78-.35-.77-.53-1.71-.53-2.79s.17-2.02.53-2.79.83-1.37,1.45-1.78c.61-.41,1.31-.62,2.1-.62s1.49.21,2.1.62c.61.41,1.1,1.01,1.45,1.78.35.77.53,1.71.53,2.79s-.18,2.02-.53,2.79c-.36.77-.84,1.37-1.45,1.78-.61.41-1.31.62-2.1.62ZM54.99,107.59c.6,0,1.13-.16,1.58-.49.45-.33.8-.8,1.05-1.43s.38-1.4.38-2.31-.13-1.69-.38-2.31-.6-1.1-1.05-1.43c-.45-.33-.97-.49-1.58-.49s-1.1.16-1.56.49c-.46.33-.81.8-1.07,1.43-.25.63-.38,1.4-.38,2.31s.13,1.69.38,2.31c.25.63.61,1.1,1.07,1.43.46.33.98.49,1.56.49Z" fill="#052962" stroke-width="0"/>
      <path d="M64.65,108.55c-.79,0-1.49-.21-2.1-.62-.61-.41-1.09-1.01-1.45-1.78-.35-.77-.53-1.71-.53-2.79s.17-2.02.53-2.79.83-1.37,1.45-1.78c.61-.41,1.31-.62,2.1-.62s1.49.21,2.1.62c.61.41,1.1,1.01,1.45,1.78.35.77.53,1.71.53,2.79s-.18,2.02-.53,2.79c-.36.77-.84,1.37-1.45,1.78-.61.41-1.31.62-2.1.62ZM64.65,107.59c.6,0,1.13-.16,1.58-.49.45-.33.8-.8,1.05-1.43s.38-1.4.38-2.31-.13-1.69-.38-2.31-.6-1.1-1.05-1.43c-.45-.33-.97-.49-1.58-.49s-1.1.16-1.56.49c-.46.33-.81.8-1.07,1.43-.25.63-.38,1.4-.38,2.31s.13,1.69.38,2.31c.25.63.61,1.1,1.07,1.43.46.33.98.49,1.56.49Z" fill="#052962" stroke-width="0"/>
    </g>
    <g>
      <path d="M3.92,287.25v-9.78l.47.5H1.52v-.93h3.46v10.22h-1.05Z" fill="#052962" stroke-width="0"/>
      <path d="M15.31,287.33c-.79,0-1.49-.21-2.1-.62-.61-.41-1.09-1.01-1.45-1.78-.35-.77-.53-1.71-.53-2.79s.17-2.02.53-2.79.83-1.37,1.45-1.78c.61-.41,1.31-.62,2.1-.62s1.49.21,2.1.62c.61.41,1.1,1.01,1.45,1.78.35.77.53,1.71.53,2.79s-.18,2.02-.53,2.79c-.36.77-.84,1.37-1.45,1.78-.61.41-1.31.62-2.1.62ZM15.31,286.37c.6,0,1.13-.16,1.58-.49.45-.33.8-.8,1.05-1.43s.38-1.4.38-2.31-.13-1.69-.38-2.31-.6-1.1-1.05-1.43c-.45-.33-.97-.49-1.58-.49s-1.1.16-1.56.49c-.46.33-.81.8-1.07,1.43-.25.63-.38,1.4-.38,2.31s.13,1.69.38,2.31c.25.63.61,1.1,1.07,1.43.46.33.98.49,1.56.49Z" fill="#052962" stroke-width="0"/>
      <path d="M24.97,287.33c-.79,0-1.49-.21-2.1-.62-.61-.41-1.09-1.01-1.45-1.78-.35-.77-.53-1.71-.53-2.79s.17-2.02.53-2.79.83-1.37,1.45-1.78c.61-.41,1.31-.62,2.1-.62s1.49.21,2.1.62c.61.41,1.1,1.01,1.45,1.78.35.77.53,1.71.53,2.79s-.18,2.02-.53,2.79c-.36.77-.84,1.37-1.45,1.78-.61.41-1.31.62-2.1.62ZM24.97,286.37c.6,0,1.13-.16,1.58-.49.45-.33.8-.8,1.05-1.43s.38-1.4.38-2.31-.13-1.69-.38-2.31-.6-1.1-1.05-1.43c-.45-.33-.97-.49-1.58-.49s-1.1.16-1.56.49c-.46.33-.81.8-1.07,1.43-.25.63-.38,1.4-.38,2.31s.13,1.69.38,2.31c.25.63.61,1.1,1.07,1.43.46.33.98.49,1.56.49Z" fill="#052962" stroke-width="0"/>
      <path d="M34.63,287.33c-.79,0-1.49-.21-2.1-.62-.61-.41-1.09-1.01-1.45-1.78-.35-.77-.53-1.71-.53-2.79s.17-2.02.53-2.79.83-1.37,1.45-1.78c.61-.41,1.31-.62,2.1-.62s1.49.21,2.1.62c.61.41,1.1,1.01,1.45,1.78.35.77.53,1.71.53,2.79s-.18,2.02-.53,2.79c-.36.77-.84,1.37-1.45,1.78-.61.41-1.31.62-2.1.62ZM34.63,286.37c.6,0,1.13-.16,1.58-.49.45-.33.8-.8,1.05-1.43s.38-1.4.38-2.31-.13-1.69-.38-2.31-.6-1.1-1.05-1.43c-.45-.33-.97-.49-1.58-.49s-1.1.16-1.56.49c-.46.33-.81.8-1.07,1.43-.25.63-.38,1.4-.38,2.31s.13,1.69.38,2.31c.25.63.61,1.1,1.07,1.43.46.33.98.49,1.56.49Z" fill="#052962" stroke-width="0"/>
      <path d="M48.11,287.33c-.79,0-1.49-.21-2.1-.62-.61-.41-1.09-1.01-1.45-1.78-.35-.77-.53-1.71-.53-2.79s.17-2.02.53-2.79.83-1.37,1.45-1.78c.61-.41,1.31-.62,2.1-.62s1.49.21,2.1.62c.61.41,1.1,1.01,1.45,1.78.35.77.53,1.71.53,2.79s-.18,2.02-.53,2.79c-.36.77-.84,1.37-1.45,1.78-.61.41-1.31.62-2.1.62ZM48.11,286.37c.6,0,1.13-.16,1.58-.49.45-.33.8-.8,1.05-1.43s.38-1.4.38-2.31-.13-1.69-.38-2.31-.6-1.1-1.05-1.43c-.45-.33-.97-.49-1.58-.49s-1.1.16-1.56.49c-.46.33-.81.8-1.07,1.43-.25.63-.38,1.4-.38,2.31s.13,1.69.38,2.31c.25.63.61,1.1,1.07,1.43.46.33.98.49,1.56.49Z" fill="#052962" stroke-width="0"/>
      <path d="M57.77,287.33c-.79,0-1.49-.21-2.1-.62-.61-.41-1.09-1.01-1.45-1.78-.35-.77-.53-1.71-.53-2.79s.17-2.02.53-2.79.83-1.37,1.45-1.78c.61-.41,1.31-.62,2.1-.62s1.49.21,2.1.62c.61.41,1.1,1.01,1.45,1.78.35.77.53,1.71.53,2.79s-.18,2.02-.53,2.79c-.36.77-.84,1.37-1.45,1.78-.61.41-1.31.62-2.1.62ZM57.77,286.37c.6,0,1.13-.16,1.58-.49.45-.33.8-.8,1.05-1.43s.38-1.4.38-2.31-.13-1.69-.38-2.31-.6-1.1-1.05-1.43c-.45-.33-.97-.49-1.58-.49s-1.1.16-1.56.49c-.46.33-.81.8-1.07,1.43-.25.63-.38,1.4-.38,2.31s.13,1.69.38,2.31c.25.63.61,1.1,1.07,1.43.46.33.98.49,1.56.49Z" fill="#052962" stroke-width="0"/>
      <path d="M67.44,287.33c-.79,0-1.49-.21-2.1-.62-.61-.41-1.09-1.01-1.45-1.78-.35-.77-.53-1.71-.53-2.79s.17-2.02.53-2.79.83-1.37,1.45-1.78c.61-.41,1.31-.62,2.1-.62s1.49.21,2.1.62c.61.41,1.1,1.01,1.45,1.78.35.77.53,1.71.53,2.79s-.18,2.02-.53,2.79c-.36.77-.84,1.37-1.45,1.78-.61.41-1.31.62-2.1.62ZM67.44,286.37c.6,0,1.13-.16,1.58-.49.45-.33.8-.8,1.05-1.43s.38-1.4.38-2.31-.13-1.69-.38-2.31-.6-1.1-1.05-1.43c-.45-.33-.97-.49-1.58-.49s-1.1.16-1.56.49c-.46.33-.81.8-1.07,1.43-.25.63-.38,1.4-.38,2.31s.13,1.69.38,2.31c.25.63.61,1.1,1.07,1.43.46.33.98.49,1.56.49Z" fill="#052962" stroke-width="0"/>
    </g>
    <g>
      <path d="M14.12,464.49c-.73,0-1.43-.12-2.09-.36-.66-.24-1.19-.56-1.58-.96l.51-.83c.32.34.76.62,1.32.85s1.17.33,1.82.33c.87,0,1.53-.19,1.98-.58.45-.38.68-.89.68-1.51,0-.44-.1-.81-.31-1.13-.21-.32-.56-.56-1.06-.74-.5-.17-1.18-.26-2.04-.26h-2.17l.53-5.12h5.59v.93h-5.17l.54-.51-.45,4.29-.54-.53h1.91c1.03,0,1.86.13,2.48.38.62.25,1.07.61,1.35,1.06s.42.98.42,1.58-.14,1.1-.41,1.57-.68.84-1.23,1.12-1.24.41-2.07.41Z" fill="#052962" stroke-width="0"/>
      <path d="M23.23,464.49c-.79,0-1.49-.21-2.1-.62-.61-.41-1.09-1.01-1.45-1.78s-.53-1.71-.53-2.79.17-2.02.53-2.79.83-1.37,1.45-1.78c.61-.41,1.31-.62,2.1-.62s1.49.21,2.1.62c.61.41,1.1,1.01,1.45,1.78.35.77.53,1.71.53,2.79s-.18,2.02-.53,2.79c-.36.77-.84,1.37-1.45,1.78-.61.41-1.31.62-2.1.62ZM23.23,463.53c.6,0,1.13-.16,1.58-.49.45-.33.8-.8,1.05-1.43s.38-1.4.38-2.31-.13-1.69-.38-2.31c-.25-.63-.6-1.1-1.05-1.43-.45-.33-.97-.49-1.58-.49s-1.1.16-1.56.49c-.46.33-.81.8-1.07,1.43-.25.63-.38,1.4-.38,2.31s.13,1.69.38,2.31c.25.63.61,1.1,1.07,1.43.46.33.98.49,1.56.49Z" fill="#052962" stroke-width="0"/>
      <path d="M32.89,464.49c-.79,0-1.49-.21-2.1-.62-.61-.41-1.09-1.01-1.45-1.78s-.53-1.71-.53-2.79.17-2.02.53-2.79.83-1.37,1.45-1.78c.61-.41,1.31-.62,2.1-.62s1.49.21,2.1.62c.61.41,1.1,1.01,1.45,1.78.35.77.53,1.71.53,2.79s-.18,2.02-.53,2.79c-.36.77-.84,1.37-1.45,1.78-.61.41-1.31.62-2.1.62ZM32.89,463.53c.6,0,1.13-.16,1.58-.49.45-.33.8-.8,1.05-1.43s.38-1.4.38-2.31-.13-1.69-.38-2.31c-.25-.63-.6-1.1-1.05-1.43-.45-.33-.97-.49-1.58-.49s-1.1.16-1.56.49c-.46.33-.81.8-1.07,1.43-.25.63-.38,1.4-.38,2.31s.13,1.69.38,2.31c.25.63.61,1.1,1.07,1.43.46.33.98.49,1.56.49Z" fill="#052962" stroke-width="0"/>
      <path d="M46.37,464.49c-.79,0-1.49-.21-2.1-.62-.61-.41-1.09-1.01-1.45-1.78s-.53-1.71-.53-2.79.17-2.02.53-2.79.83-1.37,1.45-1.78c.61-.41,1.31-.62,2.1-.62s1.49.21,2.1.62c.61.41,1.1,1.01,1.45,1.78.35.77.53,1.71.53,2.79s-.18,2.02-.53,2.79c-.36.77-.84,1.37-1.45,1.78-.61.41-1.31.62-2.1.62ZM46.37,463.53c.6,0,1.13-.16,1.58-.49.45-.33.8-.8,1.05-1.43s.38-1.4.38-2.31-.13-1.69-.38-2.31c-.25-.63-.6-1.1-1.05-1.43-.45-.33-.97-.49-1.58-.49s-1.1.16-1.56.49c-.46.33-.81.8-1.07,1.43-.25.63-.38,1.4-.38,2.31s.13,1.69.38,2.31c.25.63.61,1.1,1.07,1.43.46.33.98.49,1.56.49Z" fill="#052962" stroke-width="0"/>
      <path d="M56.04,464.49c-.79,0-1.49-.21-2.1-.62-.61-.41-1.09-1.01-1.45-1.78s-.53-1.71-.53-2.79.17-2.02.53-2.79.83-1.37,1.45-1.78c.61-.41,1.31-.62,2.1-.62s1.49.21,2.1.62c.61.41,1.1,1.01,1.45,1.78.35.77.53,1.71.53,2.79s-.18,2.02-.53,2.79c-.36.77-.84,1.37-1.45,1.78-.61.41-1.31.62-2.1.62ZM56.04,463.53c.6,0,1.13-.16,1.58-.49.45-.33.8-.8,1.05-1.43s.38-1.4.38-2.31-.13-1.69-.38-2.31c-.25-.63-.6-1.1-1.05-1.43-.45-.33-.97-.49-1.58-.49s-1.1.16-1.56.49c-.46.33-.81.8-1.07,1.43-.25.63-.38,1.4-.38,2.31s.13,1.69.38,2.31c.25.63.61,1.1,1.07,1.43.46.33.98.49,1.56.49Z" fill="#052962" stroke-width="0"/>
      <path d="M65.7,464.49c-.79,0-1.49-.21-2.1-.62-.61-.41-1.09-1.01-1.45-1.78s-.53-1.71-.53-2.79.17-2.02.53-2.79.83-1.37,1.45-1.78c.61-.41,1.31-.62,2.1-.62s1.49.21,2.1.62c.61.41,1.1,1.01,1.45,1.78.35.77.53,1.71.53,2.79s-.18,2.02-.53,2.79c-.36.77-.84,1.37-1.45,1.78-.61.41-1.31.62-2.1.62ZM65.7,463.53c.6,0,1.13-.16,1.58-.49.45-.33.8-.8,1.05-1.43s.38-1.4.38-2.31-.13-1.69-.38-2.31c-.25-.63-.6-1.1-1.05-1.43-.45-.33-.97-.49-1.58-.49s-1.1.16-1.56.49c-.46.33-.81.8-1.07,1.43-.25.63-.38,1.4-.38,2.31s.13,1.69.38,2.31c.25.63.61,1.1,1.07,1.43.46.33.98.49,1.56.49Z" fill="#052962" stroke-width="0"/>
    </g>
    <path id="EST_VT-2" data-name="EST_VT" d="M158.9,637.36V231.99c0-13.23-10.83-24.06-24.06-24.06h0c-13.23,0-24.06,10.83-24.06,24.06v405.38h48.12Z" fill="#052962" stroke-width="0"/>
    <path id="EST_VT-3" data-name="EST_VT" d="M271.5,637.47V220.89c0-13.23-10.83-24.06-24.06-24.06h0c-13.23,0-24.06,10.83-24.06,24.06v416.58h48.12Z" fill="#052962" stroke-width="0"/>
    <path id="EST_VT-4" data-name="EST_VT" d="M385.65,637.47V196.94c0-13.23-10.83-24.06-24.06-24.06h0c-13.23,0-24.06,10.83-24.06,24.06v440.53h48.12Z" fill="#052962" stroke-width="0"/>
    <path id="EST_VT-5" data-name="EST_VT" d="M498.01,637.47V196.83c0-13.23-10.83-24.06-24.06-24.06s-24.06,10.83-24.06,24.06v440.64h48.12Z" fill="#052962" stroke-width="0"/>
    <path id="EST_VT-6" data-name="EST_VT" d="M611.18,637.63V184.33c0-13.23-10.83-24.06-24.06-24.06h0c-13.23,0-24.06,10.83-24.06,24.06v453.3h48.12Z" fill="#052962" stroke-width="0"/>
    <path id="EST_VT-7" data-name="EST_VT" d="M723.6,637.74V170.88c0-13.23-10.83-24.06-24.06-24.06h0c-13.23,0-24.06,10.83-24.06,24.06v466.86h48.12Z" fill="#052962" stroke-width="0"/>
    <path id="EST_VT-8" data-name="EST_VT" d="M837.16,637.88V157.59c0-13.23-10.83-24.06-24.06-24.06h0c-13.23,0-24.06,10.83-24.06,24.06v480.29h48.12Z" fill="#052962" stroke-width="0"/>
  </g>
  <line x1="844.33" y1="0" x2="847.63" y2="638.16" fill="none" stroke="#052962" stroke-miterlimit="10" stroke-width=".5"/>
  <g id="EST_VE">
    <g id="DATES_VE">
      <g>
        <path d="M859.3,464.26v-.74l4.25-4.16c.39-.38.68-.71.88-1,.2-.29.33-.56.39-.81.07-.25.1-.49.1-.71,0-.59-.2-1.06-.61-1.4-.4-.34-1-.51-1.79-.51-.6,0-1.14.09-1.6.28-.46.19-.86.47-1.19.86l-.74-.64c.4-.47.91-.83,1.53-1.08s1.32-.38,2.09-.38c.69,0,1.29.11,1.79.33s.9.54,1.18.96c.28.42.41.91.41,1.47,0,.33-.04.66-.14.98-.09.32-.26.66-.5,1.01-.24.35-.59.76-1.04,1.2l-3.9,3.82-.29-.41h6.33v.93h-7.17Z" fill="#052962" stroke-width="0"/>
        <path d="M871.85,464.35c-.79,0-1.49-.21-2.1-.62-.61-.41-1.09-1.01-1.45-1.78-.35-.77-.53-1.71-.53-2.79s.18-2.02.53-2.79c.35-.77.83-1.37,1.45-1.78.61-.41,1.31-.62,2.1-.62s1.49.21,2.1.62c.61.41,1.1,1.01,1.45,1.78.35.77.53,1.71.53,2.79s-.18,2.02-.53,2.79c-.36.77-.84,1.37-1.45,1.78-.61.41-1.31.62-2.1.62ZM871.85,463.38c.6,0,1.13-.16,1.58-.49s.8-.8,1.05-1.43c.25-.63.38-1.4.38-2.31s-.12-1.69-.38-2.31c-.25-.63-.6-1.1-1.05-1.43s-.97-.49-1.58-.49-1.1.16-1.56.49c-.46.33-.81.8-1.07,1.43-.25.63-.38,1.4-.38,2.31s.12,1.69.38,2.31.61,1.1,1.07,1.43c.46.33.98.49,1.56.49Z" fill="#052962" stroke-width="0"/>
        <path d="M881.51,464.35c-.79,0-1.49-.21-2.1-.62-.61-.41-1.1-1.01-1.45-1.78-.35-.77-.53-1.71-.53-2.79s.17-2.02.53-2.79c.35-.77.83-1.37,1.45-1.78.61-.41,1.31-.62,2.1-.62s1.49.21,2.1.62c.61.41,1.1,1.01,1.45,1.78s.53,1.71.53,2.79-.18,2.02-.53,2.79-.84,1.37-1.45,1.78c-.61.41-1.31.62-2.1.62ZM881.51,463.38c.6,0,1.13-.16,1.58-.49.45-.33.8-.8,1.05-1.43.25-.63.38-1.4.38-2.31s-.13-1.69-.38-2.31c-.25-.63-.6-1.1-1.05-1.43-.45-.33-.97-.49-1.58-.49s-1.11.16-1.56.49-.81.8-1.06,1.43c-.25.63-.38,1.4-.38,2.31s.13,1.69.38,2.31c.25.63.61,1.1,1.06,1.43s.98.49,1.56.49Z" fill="#052962" stroke-width="0"/>
        <path d="M895,464.35c-.79,0-1.49-.21-2.1-.62-.61-.41-1.1-1.01-1.45-1.78-.35-.77-.53-1.71-.53-2.79s.17-2.02.53-2.79c.35-.77.83-1.37,1.45-1.78.61-.41,1.31-.62,2.1-.62s1.49.21,2.1.62c.61.41,1.1,1.01,1.45,1.78s.53,1.71.53,2.79-.18,2.02-.53,2.79-.84,1.37-1.45,1.78c-.61.41-1.31.62-2.1.62ZM895,463.38c.6,0,1.13-.16,1.58-.49.45-.33.8-.8,1.05-1.43.25-.63.38-1.4.38-2.31s-.13-1.69-.38-2.31c-.25-.63-.6-1.1-1.05-1.43-.45-.33-.97-.49-1.58-.49s-1.11.16-1.56.49-.81.8-1.06,1.43c-.25.63-.38,1.4-.38,2.31s.13,1.69.38,2.31c.25.63.61,1.1,1.06,1.43s.98.49,1.56.49Z" fill="#052962" stroke-width="0"/>
        <path d="M904.66,464.35c-.79,0-1.49-.21-2.1-.62-.61-.41-1.09-1.01-1.45-1.78-.35-.77-.53-1.71-.53-2.79s.18-2.02.53-2.79c.35-.77.83-1.37,1.45-1.78.61-.41,1.31-.62,2.1-.62s1.49.21,2.1.62c.61.41,1.1,1.01,1.45,1.78.35.77.53,1.71.53,2.79s-.18,2.02-.53,2.79c-.36.77-.84,1.37-1.45,1.78-.61.41-1.31.62-2.1.62ZM904.66,463.38c.6,0,1.13-.16,1.58-.49s.8-.8,1.05-1.43c.25-.63.38-1.4.38-2.31s-.12-1.69-.38-2.31c-.25-.63-.6-1.1-1.05-1.43s-.97-.49-1.58-.49-1.1.16-1.56.49c-.46.33-.81.8-1.07,1.43-.25.63-.38,1.4-.38,2.31s.12,1.69.38,2.31.61,1.1,1.07,1.43c.46.33.98.49,1.56.49Z" fill="#052962" stroke-width="0"/>
        <path d="M914.32,464.35c-.79,0-1.49-.21-2.1-.62-.61-.41-1.1-1.01-1.45-1.78-.35-.77-.53-1.71-.53-2.79s.17-2.02.53-2.79c.35-.77.83-1.37,1.45-1.78.61-.41,1.31-.62,2.1-.62s1.49.21,2.1.62c.61.41,1.1,1.01,1.45,1.78s.53,1.71.53,2.79-.18,2.02-.53,2.79-.84,1.37-1.45,1.78c-.61.41-1.31.62-2.1.62ZM914.32,463.38c.6,0,1.13-.16,1.58-.49.45-.33.8-.8,1.05-1.43.25-.63.38-1.4.38-2.31s-.13-1.69-.38-2.31c-.25-.63-.6-1.1-1.05-1.43-.45-.33-.97-.49-1.58-.49s-1.11.16-1.56.49-.81.8-1.06,1.43c-.25.63-.38,1.4-.38,2.31s.13,1.69.38,2.31c.25.63.61,1.1,1.06,1.43s.98.49,1.56.49Z" fill="#052962" stroke-width="0"/>
      </g>
      <g>
        <path d="M859.31,284.55v-.76l5.41-6.77h1.17l-5.37,6.77-.57-.18h8.22v.93h-8.86ZM865.08,287.24v-2.69l.03-.93v-2.36h1.02v5.98h-1.05Z" fill="#052962" stroke-width="0"/>
        <path d="M873.21,287.33c-.79,0-1.49-.21-2.1-.62-.61-.41-1.1-1.01-1.45-1.78-.35-.77-.53-1.71-.53-2.79s.17-2.02.53-2.79c.35-.77.83-1.37,1.45-1.78.61-.41,1.31-.62,2.1-.62s1.49.21,2.1.62c.61.41,1.1,1.01,1.45,1.78s.53,1.71.53,2.79-.18,2.02-.53,2.79c-.36.77-.84,1.37-1.45,1.78-.61.41-1.31.62-2.1.62ZM873.21,286.36c.6,0,1.13-.16,1.58-.49.45-.33.8-.8,1.05-1.43.25-.63.38-1.4.38-2.31s-.13-1.69-.38-2.31c-.25-.63-.6-1.1-1.05-1.43-.45-.33-.97-.49-1.58-.49s-1.11.16-1.56.49c-.46.33-.81.8-1.06,1.43-.25.63-.38,1.4-.38,2.31s.13,1.69.38,2.31c.25.63.61,1.1,1.06,1.43.46.33.98.49,1.56.49Z" fill="#052962" stroke-width="0"/>
        <path d="M882.87,287.33c-.79,0-1.49-.21-2.1-.62s-1.09-1.01-1.45-1.78c-.35-.77-.53-1.71-.53-2.79s.18-2.02.53-2.79c.35-.77.83-1.37,1.45-1.78.61-.41,1.31-.62,2.1-.62s1.49.21,2.1.62c.61.41,1.1,1.01,1.45,1.78.35.77.53,1.71.53,2.79s-.18,2.02-.53,2.79c-.36.77-.84,1.37-1.45,1.78s-1.31.62-2.1.62ZM882.87,286.36c.6,0,1.13-.16,1.58-.49.45-.33.8-.8,1.05-1.43.25-.63.38-1.4.38-2.31s-.12-1.69-.38-2.31c-.25-.63-.6-1.1-1.05-1.43-.45-.33-.97-.49-1.58-.49s-1.1.16-1.56.49c-.46.33-.81.8-1.07,1.43s-.38,1.4-.38,2.31.12,1.69.38,2.31.61,1.1,1.07,1.43c.46.33.98.49,1.56.49Z" fill="#052962" stroke-width="0"/>
        <path d="M896.35,287.33c-.79,0-1.49-.21-2.1-.62s-1.09-1.01-1.45-1.78c-.35-.77-.53-1.71-.53-2.79s.18-2.02.53-2.79c.35-.77.83-1.37,1.45-1.78.61-.41,1.31-.62,2.1-.62s1.49.21,2.1.62c.61.41,1.1,1.01,1.45,1.78.35.77.53,1.71.53,2.79s-.18,2.02-.53,2.79c-.36.77-.84,1.37-1.45,1.78s-1.31.62-2.1.62ZM896.35,286.36c.6,0,1.13-.16,1.58-.49.45-.33.8-.8,1.05-1.43.25-.63.38-1.4.38-2.31s-.12-1.69-.38-2.31c-.25-.63-.6-1.1-1.05-1.43-.45-.33-.97-.49-1.58-.49s-1.1.16-1.56.49c-.46.33-.81.8-1.07,1.43s-.38,1.4-.38,2.31.12,1.69.38,2.31.61,1.1,1.07,1.43c.46.33.98.49,1.56.49Z" fill="#052962" stroke-width="0"/>
        <path d="M906.02,287.33c-.79,0-1.49-.21-2.1-.62-.61-.41-1.1-1.01-1.45-1.78-.35-.77-.53-1.71-.53-2.79s.17-2.02.53-2.79c.35-.77.83-1.37,1.45-1.78.61-.41,1.31-.62,2.1-.62s1.49.21,2.1.62c.61.41,1.1,1.01,1.45,1.78s.53,1.71.53,2.79-.18,2.02-.53,2.79c-.36.77-.84,1.37-1.45,1.78-.61.41-1.31.62-2.1.62ZM906.02,286.36c.6,0,1.13-.16,1.58-.49.45-.33.8-.8,1.05-1.43.25-.63.38-1.4.38-2.31s-.13-1.69-.38-2.31c-.25-.63-.6-1.1-1.05-1.43-.45-.33-.97-.49-1.58-.49s-1.11.16-1.56.49c-.46.33-.81.8-1.06,1.43-.25.63-.38,1.4-.38,2.31s.13,1.69.38,2.31c.25.63.61,1.1,1.06,1.43.46.33.98.49,1.56.49Z" fill="#052962" stroke-width="0"/>
        <path d="M915.68,287.33c-.79,0-1.49-.21-2.1-.62s-1.09-1.01-1.45-1.78c-.35-.77-.53-1.71-.53-2.79s.18-2.02.53-2.79c.35-.77.83-1.37,1.45-1.78.61-.41,1.31-.62,2.1-.62s1.49.21,2.1.62c.61.41,1.1,1.01,1.45,1.78.35.77.53,1.71.53,2.79s-.18,2.02-.53,2.79c-.36.77-.84,1.37-1.45,1.78s-1.31.62-2.1.62ZM915.68,286.36c.6,0,1.13-.16,1.58-.49.45-.33.8-.8,1.05-1.43.25-.63.38-1.4.38-2.31s-.12-1.69-.38-2.31c-.25-.63-.6-1.1-1.05-1.43-.45-.33-.97-.49-1.58-.49s-1.1.16-1.56.49c-.46.33-.81.8-1.07,1.43s-.38,1.4-.38,2.31.12,1.69.38,2.31.61,1.1,1.07,1.43c.46.33.98.49,1.56.49Z" fill="#052962" stroke-width="0"/>
      </g>
      <g>
        <path d="M863.68,108.56c-.9,0-1.67-.2-2.29-.61s-1.09-.99-1.42-1.75c-.32-.76-.48-1.68-.48-2.75,0-1.16.2-2.13.59-2.91.39-.78.94-1.37,1.64-1.77.7-.4,1.51-.6,2.44-.6.46,0,.89.04,1.31.13.42.09.79.23,1.11.42l-.42.85c-.26-.17-.56-.3-.91-.37-.34-.07-.7-.11-1.08-.11-1.1,0-1.98.35-2.63,1.05-.66.7-.99,1.75-.99,3.14,0,.21.01.48.04.8.02.32.08.63.17.94l-.37-.28c.11-.51.32-.94.63-1.29.31-.35.7-.62,1.17-.81.47-.18.98-.28,1.53-.28.68,0,1.28.13,1.79.38.52.25.92.61,1.21,1.07.29.46.44,1,.44,1.62s-.15,1.18-.45,1.66c-.3.47-.72.84-1.25,1.09-.53.26-1.13.39-1.79.39ZM863.64,107.67c.49,0,.92-.09,1.29-.27.38-.18.67-.44.88-.77.21-.34.32-.73.32-1.17,0-.67-.23-1.21-.69-1.61-.46-.4-1.09-.6-1.88-.6-.53,0-.98.1-1.37.29-.39.19-.7.46-.92.8-.22.34-.33.72-.33,1.15,0,.37.1.72.31,1.06.2.34.51.61.91.82.4.21.9.31,1.48.31Z" fill="#052962" stroke-width="0"/>
        <path d="M872.45,108.56c-.79,0-1.49-.21-2.1-.62s-1.09-1.01-1.45-1.78c-.35-.77-.53-1.71-.53-2.79s.18-2.02.53-2.79c.35-.77.83-1.37,1.45-1.78.61-.41,1.31-.62,2.1-.62s1.49.21,2.1.62c.61.41,1.1,1.01,1.45,1.78.35.77.53,1.71.53,2.79s-.18,2.02-.53,2.79c-.36.77-.84,1.37-1.45,1.78s-1.31.62-2.1.62ZM872.45,107.59c.6,0,1.13-.16,1.58-.49.45-.33.8-.8,1.05-1.43.25-.63.38-1.4.38-2.31s-.12-1.69-.38-2.31c-.25-.63-.6-1.1-1.05-1.43-.45-.33-.97-.49-1.58-.49s-1.1.16-1.56.49c-.46.33-.81.8-1.07,1.43s-.38,1.4-.38,2.31.12,1.69.38,2.31.61,1.1,1.07,1.43c.46.33.98.49,1.56.49Z" fill="#052962" stroke-width="0"/>
        <path d="M882.11,108.56c-.79,0-1.49-.21-2.1-.62-.61-.41-1.1-1.01-1.45-1.78-.35-.77-.53-1.71-.53-2.79s.17-2.02.53-2.79c.35-.77.83-1.37,1.45-1.78.61-.41,1.31-.62,2.1-.62s1.49.21,2.1.62c.61.41,1.1,1.01,1.45,1.78s.53,1.71.53,2.79-.18,2.02-.53,2.79c-.36.77-.84,1.37-1.45,1.78-.61.41-1.31.62-2.1.62ZM882.11,107.59c.6,0,1.13-.16,1.58-.49.45-.33.8-.8,1.05-1.43.25-.63.38-1.4.38-2.31s-.13-1.69-.38-2.31c-.25-.63-.6-1.1-1.05-1.43-.45-.33-.97-.49-1.58-.49s-1.11.16-1.56.49c-.46.33-.81.8-1.06,1.43-.25.63-.38,1.4-.38,2.31s.13,1.69.38,2.31c.25.63.61,1.1,1.06,1.43.46.33.98.49,1.56.49Z" fill="#052962" stroke-width="0"/>
        <path d="M895.6,108.56c-.79,0-1.49-.21-2.1-.62-.61-.41-1.1-1.01-1.45-1.78-.35-.77-.53-1.71-.53-2.79s.17-2.02.53-2.79c.35-.77.83-1.37,1.45-1.78.61-.41,1.31-.62,2.1-.62s1.49.21,2.1.62c.61.41,1.1,1.01,1.45,1.78s.53,1.71.53,2.79-.18,2.02-.53,2.79c-.36.77-.84,1.37-1.45,1.78-.61.41-1.31.62-2.1.62ZM895.6,107.59c.6,0,1.13-.16,1.58-.49.45-.33.8-.8,1.05-1.43.25-.63.38-1.4.38-2.31s-.13-1.69-.38-2.31c-.25-.63-.6-1.1-1.05-1.43-.45-.33-.97-.49-1.58-.49s-1.11.16-1.56.49c-.46.33-.81.8-1.06,1.43-.25.63-.38,1.4-.38,2.31s.13,1.69.38,2.31c.25.63.61,1.1,1.06,1.43.46.33.98.49,1.56.49Z" fill="#052962" stroke-width="0"/>
        <path d="M905.26,108.56c-.79,0-1.49-.21-2.1-.62s-1.09-1.01-1.45-1.78c-.35-.77-.53-1.71-.53-2.79s.18-2.02.53-2.79c.35-.77.83-1.37,1.45-1.78.61-.41,1.31-.62,2.1-.62s1.49.21,2.1.62c.61.41,1.1,1.01,1.45,1.78.35.77.53,1.71.53,2.79s-.18,2.02-.53,2.79c-.36.77-.84,1.37-1.45,1.78s-1.31.62-2.1.62ZM905.26,107.59c.6,0,1.13-.16,1.58-.49.45-.33.8-.8,1.05-1.43.25-.63.38-1.4.38-2.31s-.12-1.69-.38-2.31c-.25-.63-.6-1.1-1.05-1.43-.45-.33-.97-.49-1.58-.49s-1.1.16-1.56.49c-.46.33-.81.8-1.07,1.43s-.38,1.4-.38,2.31.12,1.69.38,2.31.61,1.1,1.07,1.43c.46.33.98.49,1.56.49Z" fill="#052962" stroke-width="0"/>
        <path d="M914.92,108.56c-.79,0-1.49-.21-2.1-.62-.61-.41-1.1-1.01-1.45-1.78-.35-.77-.53-1.71-.53-2.79s.17-2.02.53-2.79c.35-.77.83-1.37,1.45-1.78.61-.41,1.31-.62,2.1-.62s1.49.21,2.1.62c.61.41,1.1,1.01,1.45,1.78s.53,1.71.53,2.79-.18,2.02-.53,2.79c-.36.77-.84,1.37-1.45,1.78-.61.41-1.31.62-2.1.62ZM914.92,107.59c.6,0,1.13-.16,1.58-.49.45-.33.8-.8,1.05-1.43.25-.63.38-1.4.38-2.31s-.13-1.69-.38-2.31c-.25-.63-.6-1.1-1.05-1.43-.45-.33-.97-.49-1.58-.49s-1.11.16-1.56.49c-.46.33-.81.8-1.06,1.43-.25.63-.38,1.4-.38,2.31s.13,1.69.38,2.31c.25.63.61,1.1,1.06,1.43.46.33.98.49,1.56.49Z" fill="#052962" stroke-width="0"/>
      </g>
    </g>
    <g id="EST_VE-2" data-name="EST_VE">
      <path id="EST_VE-3" data-name="EST_VE" d="M135.01,615.15c24.09-4.67,54.18-11.46,88.34-21.48,55.37-16.25,96.31-33.63,112.43-40.7,51.59-22.62,87.89-44.35,119.32-63.32,41.34-24.95,72.25-43.59,108.99-73.49,60.27-49.04,97.77-97.03,126.2-133.42,25.64-32.82,47.2-64.69,83.75-118.72,16.51-24.4,29.9-44.79,39.01-58.79" fill="none" stroke="#0b4baa" stroke-miterlimit="10" stroke-width="5"/>
      <circle id="POINT_2030" cx="814.74" cy="102.85" r="6.35" fill="#0b4baa" stroke-width="0"/>
      <circle id="POINT_2024" cx="131.64" cy="615.84" r="6.35" fill="#0b4baa" stroke-width="0"/>
      <circle id="POINT_2024-2" data-name="POINT_2024" cx="245.93" cy="586.12" r="6.35" fill="#0b4baa" stroke-width="0"/>
      <circle id="POINT_2024-3" data-name="POINT_2024" cx="361" cy="540.61" r="6.35" fill="#0b4baa" stroke-width="0"/>
      <circle id="POINT_2024-4" data-name="POINT_2024" cx="474.65" cy="477.81" r="6.35" fill="#0b4baa" stroke-width="0"/>
      <circle id="POINT_2024-5" data-name="POINT_2024" cx="587.79" cy="396.12" r="6.35" fill="#0b4baa" stroke-width="0"/>
      <circle id="POINT_2024-6" data-name="POINT_2024" cx="700.22" cy="271.75" r="6.35" fill="#0b4baa" stroke-width="0"/>
    </g>
  </g>
  <g id="EST_LEG_VE">
    <rect id="REC_VE" x="82.96" y="750.66" width="39.57" height="22.42" fill="#0b4baa" stroke-width="0"/>
    <g>
      <path d="M134.24,767.36v-7.7h.67l5.31,6.69h-.35v-6.69h.8v7.7h-.67l-5.3-6.69h.35v6.69h-.81Z" fill="#052962" stroke-width="0"/>
      <path d="M145.14,767.42c-.57,0-1.07-.13-1.51-.38-.44-.25-.79-.6-1.04-1.05s-.38-.95-.38-1.52.13-1.09.38-1.53c.26-.44.61-.79,1.04-1.03.44-.25.94-.37,1.51-.37s1.08.13,1.52.38c.44.25.79.6,1.04,1.03.25.44.38.94.38,1.52s-.13,1.08-.38,1.52c-.25.44-.6.79-1.05,1.04-.45.25-.95.38-1.52.38ZM145.14,766.72c.42,0,.79-.09,1.11-.28.32-.19.58-.45.76-.79.19-.34.28-.74.28-1.18s-.09-.85-.28-1.19c-.19-.34-.44-.6-.76-.79-.32-.19-.69-.28-1.1-.28s-.78.09-1.1.28c-.32.19-.58.45-.77.79-.19.34-.29.73-.29,1.19s.1.84.29,1.18.45.61.76.79c.32.19.68.28,1.09.28Z" fill="#052962" stroke-width="0"/>
      <path d="M156.67,761.53c.47,0,.88.09,1.23.27.35.18.62.45.81.82.19.37.29.83.29,1.39v3.36h-.78v-3.28c0-.61-.15-1.07-.43-1.38-.29-.31-.7-.47-1.23-.47-.4,0-.74.08-1.03.25-.29.17-.51.4-.67.71-.16.31-.24.69-.24,1.13v3.04h-.78v-3.28c0-.61-.15-1.07-.44-1.38-.29-.31-.7-.47-1.23-.47-.39,0-.73.08-1.02.25-.29.17-.52.4-.68.71-.16.31-.24.69-.24,1.13v3.04h-.78v-5.78h.75v1.56l-.12-.28c.18-.42.46-.75.85-.98s.86-.36,1.39-.36c.56,0,1.04.14,1.44.42.4.28.65.71.77,1.27l-.31-.12c.17-.47.47-.85.9-1.14.43-.29.94-.43,1.54-.43Z" fill="#052962" stroke-width="0"/>
      <path d="M160.9,767.36v-8.16h.78v4.09l-.11,1.17.08,1.17v1.74h-.75ZM163.88,767.42c-.51,0-.96-.12-1.36-.35-.4-.23-.72-.57-.96-1.01-.23-.44-.35-.97-.35-1.6s.12-1.16.36-1.6c.24-.44.56-.77.96-1s.85-.34,1.35-.34c.55,0,1.04.12,1.48.37.44.25.78.59,1.03,1.03.25.44.37.95.37,1.54s-.12,1.09-.37,1.54c-.25.44-.59.79-1.03,1.04-.44.25-.93.37-1.48.37ZM163.82,766.72c.41,0,.78-.09,1.1-.28.32-.19.58-.45.77-.79s.29-.74.29-1.18-.1-.85-.29-1.19c-.19-.34-.45-.6-.77-.79-.32-.19-.69-.28-1.1-.28s-.78.09-1.11.28c-.33.19-.58.45-.77.79-.19.34-.28.73-.28,1.19s.09.84.28,1.18c.19.34.44.61.77.79.33.19.7.28,1.11.28Z" fill="#052962" stroke-width="0"/>
      <path d="M168.12,767.36v-5.78h.75v1.57l-.08-.28c.16-.44.43-.78.81-1.01.38-.23.85-.35,1.42-.35v.76s-.06,0-.09,0c-.03,0-.06,0-.09,0-.61,0-1.09.19-1.43.56s-.52.9-.52,1.58v2.95h-.78Z" fill="#052962" stroke-width="0"/>
      <path d="M174.76,767.42c-.6,0-1.13-.13-1.58-.38-.46-.25-.81-.6-1.07-1.04-.26-.44-.38-.95-.38-1.52s.12-1.08.37-1.52c.25-.44.58-.79,1.01-1.04.43-.25.91-.38,1.45-.38s1.02.12,1.45.37c.42.25.75.59,1,1.03.24.44.36.96.36,1.53,0,.04,0,.08,0,.12,0,.04,0,.08,0,.13h-5.03v-.58h4.61l-.31.23c0-.42-.09-.79-.27-1.12-.18-.33-.42-.58-.73-.76-.31-.18-.66-.28-1.07-.28s-.75.09-1.07.28c-.32.18-.56.44-.74.77-.18.33-.26.71-.26,1.13v.12c0,.44.1.83.29,1.16.19.33.47.59.81.78.35.19.75.28,1.19.28.35,0,.68-.06.98-.19.3-.12.57-.32.79-.57l.44.51c-.26.31-.58.54-.96.7-.38.16-.81.24-1.27.24Z" fill="#052962" stroke-width="0"/>
      <path d="M183.67,767.42c-.55,0-1.04-.12-1.48-.37s-.78-.6-1.03-1.04c-.25-.44-.37-.96-.37-1.54s.12-1.1.37-1.54c.25-.44.59-.78,1.03-1.03.44-.25.93-.37,1.48-.37.51,0,.96.11,1.36.34.4.23.72.56.96,1,.24.44.36.97.36,1.6s-.12,1.16-.35,1.6c-.23.44-.55.78-.95,1.01-.4.23-.86.35-1.37.35ZM183.72,766.72c.41,0,.78-.09,1.11-.28.33-.19.58-.45.77-.79.19-.34.28-.74.28-1.18s-.09-.85-.28-1.19c-.19-.34-.44-.6-.77-.79-.33-.19-.7-.28-1.11-.28s-.77.09-1.09.28c-.32.19-.58.45-.77.79-.19.34-.29.73-.29,1.19s.1.84.29,1.18.45.61.77.79c.32.19.69.28,1.09.28ZM185.9,767.36v-1.74l.08-1.17-.11-1.17v-4.09h.78v8.16h-.75Z" fill="#052962" stroke-width="0"/>
      <path d="M191.05,767.42c-.6,0-1.13-.13-1.58-.38-.46-.25-.81-.6-1.07-1.04-.26-.44-.38-.95-.38-1.52s.12-1.08.37-1.52c.25-.44.58-.79,1.01-1.04.43-.25.91-.38,1.45-.38s1.02.12,1.45.37c.42.25.75.59,1,1.03.24.44.36.96.36,1.53,0,.04,0,.08,0,.12,0,.04,0,.08,0,.13h-5.03v-.58h4.61l-.31.23c0-.42-.09-.79-.27-1.12-.18-.33-.42-.58-.73-.76-.31-.18-.66-.28-1.07-.28s-.75.09-1.07.28c-.32.18-.56.44-.74.77-.18.33-.26.71-.26,1.13v.12c0,.44.1.83.29,1.16.19.33.47.59.81.78.35.19.75.28,1.19.28.35,0,.68-.06.98-.19.3-.12.57-.32.79-.57l.44.51c-.26.31-.58.54-.96.7-.38.16-.81.24-1.27.24Z" fill="#052962" stroke-width="0"/>
      <path d="M199.14,767.36l-2.56-5.78h.81l2.35,5.36h-.38l2.39-5.36h.77l-2.57,5.78h-.8Z" fill="#052962" stroke-width="0"/>
      <path d="M205.74,767.42c-.57,0-1.07-.13-1.51-.38-.44-.25-.79-.6-1.04-1.05s-.38-.95-.38-1.52.13-1.09.38-1.53c.26-.44.61-.79,1.04-1.03.44-.25.94-.37,1.51-.37s1.08.13,1.52.38c.44.25.79.6,1.04,1.03.25.44.38.94.38,1.52s-.13,1.08-.38,1.52c-.25.44-.6.79-1.05,1.04-.45.25-.95.38-1.52.38ZM205.74,766.72c.42,0,.79-.09,1.11-.28.32-.19.58-.45.76-.79.19-.34.28-.74.28-1.18s-.09-.85-.28-1.19c-.19-.34-.44-.6-.76-.79-.32-.19-.69-.28-1.1-.28s-.78.09-1.1.28c-.32.19-.58.45-.77.79-.19.34-.29.73-.29,1.19s.1.84.29,1.18.45.61.76.79c.32.19.68.28,1.09.28Z" fill="#052962" stroke-width="0"/>
      <path d="M210.45,760.31c-.16,0-.3-.06-.41-.17-.11-.11-.17-.24-.17-.4s.05-.28.17-.39.25-.16.41-.16.3.05.41.15c.11.1.17.23.17.38s-.05.3-.16.41c-.11.11-.24.17-.41.17ZM210.05,767.36v-5.78h.78v5.78h-.78Z" fill="#052962" stroke-width="0"/>
      <path d="M211.88,762.24v-.65h3.58v.65h-3.58ZM214.61,767.42c-.54,0-.96-.15-1.25-.44s-.44-.71-.44-1.24v-5.42h.78v5.38c0,.34.09.6.26.78.17.18.42.28.74.28.34,0,.63-.1.86-.3l.27.56c-.15.14-.34.24-.56.31-.22.07-.44.1-.67.1Z" fill="#052962" stroke-width="0"/>
      <path d="M219.4,767.42c-.49,0-.92-.09-1.29-.28-.37-.18-.65-.46-.85-.82-.2-.37-.3-.83-.3-1.38v-3.36h.78v3.27c0,.62.15,1.08.46,1.39.3.31.73.47,1.28.47.4,0,.75-.08,1.05-.25s.52-.41.68-.72c.16-.32.24-.69.24-1.13v-3.03h.78v5.78h-.75v-1.58l.12.29c-.18.42-.47.76-.85,1-.38.24-.83.36-1.35.36Z" fill="#052962" stroke-width="0"/>
      <path d="M224.18,767.36v-5.78h.75v1.57l-.08-.28c.16-.44.43-.78.81-1.01.38-.23.85-.35,1.42-.35v.76s-.06,0-.09,0c-.03,0-.06,0-.09,0-.61,0-1.09.19-1.43.56s-.52.9-.52,1.58v2.95h-.78Z" fill="#052962" stroke-width="0"/>
      <path d="M230.81,767.42c-.6,0-1.13-.13-1.58-.38-.46-.25-.81-.6-1.07-1.04-.26-.44-.38-.95-.38-1.52s.12-1.08.37-1.52c.25-.44.58-.79,1.01-1.04.43-.25.91-.38,1.45-.38s1.02.12,1.45.37c.42.25.75.59,1,1.03.24.44.36.96.36,1.53,0,.04,0,.08,0,.12,0,.04,0,.08,0,.13h-5.03v-.58h4.61l-.31.23c0-.42-.09-.79-.27-1.12-.18-.33-.42-.58-.73-.76-.31-.18-.66-.28-1.07-.28s-.75.09-1.07.28c-.32.18-.56.44-.74.77-.18.33-.26.71-.26,1.13v.12c0,.44.1.83.29,1.16.19.33.47.59.81.78.35.19.75.28,1.19.28.35,0,.68-.06.98-.19.3-.12.57-.32.79-.57l.44.51c-.26.31-.58.54-.96.7-.38.16-.81.24-1.27.24Z" fill="#052962" stroke-width="0"/>
      <path d="M236.32,767.42c-.48,0-.93-.07-1.35-.2-.43-.14-.76-.31-1-.51l.35-.62c.24.18.54.33.9.46.37.13.75.19,1.16.19.55,0,.95-.09,1.19-.26.24-.17.36-.4.36-.69,0-.21-.07-.38-.2-.5-.14-.12-.31-.21-.53-.27s-.47-.12-.74-.16c-.27-.04-.54-.1-.81-.15-.27-.06-.51-.14-.73-.26-.22-.11-.4-.27-.53-.47-.14-.2-.2-.46-.2-.79s.09-.6.26-.85.43-.45.78-.59c.34-.14.76-.21,1.25-.21.37,0,.75.05,1.12.15s.68.23.92.39l-.34.63c-.26-.18-.53-.3-.83-.38-.29-.08-.59-.12-.88-.12-.52,0-.9.09-1.15.27-.25.18-.37.41-.37.69,0,.22.07.39.2.52.14.12.32.22.54.29s.47.13.74.17.54.1.8.16c.27.06.51.15.74.25s.4.26.54.45.2.45.2.76c0,.34-.09.63-.28.88-.19.25-.46.44-.81.57s-.79.2-1.29.2Z" fill="#052962" stroke-width="0"/>
      <path d="M245.01,767.42c-.6,0-1.13-.13-1.58-.38-.46-.25-.81-.6-1.07-1.04-.26-.44-.38-.95-.38-1.52s.12-1.08.37-1.52c.25-.44.58-.79,1.01-1.04.43-.25.91-.38,1.45-.38s1.02.12,1.45.37c.42.25.75.59,1,1.03.24.44.36.96.36,1.53,0,.04,0,.08,0,.12,0,.04,0,.08,0,.13h-5.03v-.58h4.61l-.31.23c0-.42-.09-.79-.27-1.12-.18-.33-.42-.58-.73-.76-.31-.18-.66-.28-1.07-.28s-.75.09-1.07.28c-.32.18-.56.44-.74.77-.18.33-.26.71-.26,1.13v.12c0,.44.1.83.29,1.16.19.33.47.59.81.78.35.19.75.28,1.19.28.35,0,.68-.06.98-.19.3-.12.57-.32.79-.57l.44.51c-.26.31-.58.54-.96.7-.38.16-.81.24-1.27.24ZM244.08,760.68l1.51-1.36h1.04l-1.78,1.36h-.77Z" fill="#052962" stroke-width="0"/>
      <path d="M248.97,767.36v-8.16h.78v8.16h-.78Z" fill="#052962" stroke-width="0"/>
      <path d="M254.15,767.42c-.6,0-1.13-.13-1.58-.38-.46-.25-.81-.6-1.07-1.04-.26-.44-.38-.95-.38-1.52s.12-1.08.37-1.52c.25-.44.58-.79,1.01-1.04.43-.25.91-.38,1.45-.38s1.02.12,1.45.37c.42.25.75.59,1,1.03.24.44.36.96.36,1.53,0,.04,0,.08,0,.12,0,.04,0,.08,0,.13h-5.03v-.58h4.61l-.31.23c0-.42-.09-.79-.27-1.12-.18-.33-.42-.58-.73-.76-.31-.18-.66-.28-1.07-.28s-.75.09-1.07.28c-.32.18-.56.44-.74.77-.18.33-.26.71-.26,1.13v.12c0,.44.1.83.29,1.16.19.33.47.59.81.78.35.19.75.28,1.19.28.35,0,.68-.06.98-.19.3-.12.57-.32.79-.57l.44.51c-.26.31-.58.54-.96.7-.38.16-.81.24-1.27.24Z" fill="#052962" stroke-width="0"/>
      <path d="M260.51,767.42c-.57,0-1.08-.13-1.54-.38-.45-.25-.8-.6-1.06-1.04-.26-.44-.38-.95-.38-1.52s.13-1.09.38-1.53c.26-.44.61-.79,1.06-1.03.45-.25.96-.37,1.54-.37.49,0,.93.1,1.33.29.4.19.71.48.93.86l-.58.4c-.2-.29-.44-.51-.74-.65-.29-.14-.61-.21-.96-.21-.41,0-.78.09-1.11.28-.33.19-.59.45-.78.79-.19.34-.29.73-.29,1.19s.1.85.29,1.19.45.6.78.79c.33.19.7.28,1.11.28.34,0,.66-.07.96-.21.29-.14.54-.35.74-.64l.58.4c-.23.37-.54.66-.93.85-.4.19-.84.29-1.33.29Z" fill="#052962" stroke-width="0"/>
      <path d="M263.17,762.24v-.65h3.58v.65h-3.58ZM265.9,767.42c-.54,0-.96-.15-1.25-.44s-.44-.71-.44-1.24v-5.42h.78v5.38c0,.34.09.6.26.78.17.18.42.28.74.28.34,0,.63-.1.86-.3l.27.56c-.15.14-.34.24-.56.31-.22.07-.44.1-.67.1Z" fill="#052962" stroke-width="0"/>
      <path d="M268.31,767.36v-5.78h.75v1.57l-.08-.28c.16-.44.43-.78.81-1.01.38-.23.85-.35,1.42-.35v.76s-.06,0-.09,0c-.03,0-.06,0-.09,0-.61,0-1.09.19-1.43.56s-.52.9-.52,1.58v2.95h-.78Z" fill="#052962" stroke-width="0"/>
      <path d="M272.88,760.31c-.16,0-.3-.06-.41-.17-.11-.11-.17-.24-.17-.4s.05-.28.17-.39.25-.16.41-.16.3.05.41.15c.11.1.17.23.17.38s-.05.3-.16.41c-.11.11-.24.17-.41.17ZM272.49,767.36v-5.78h.78v5.78h-.78Z" fill="#052962" stroke-width="0"/>
      <path d="M277.52,767.42c-.55,0-1.04-.12-1.48-.37s-.78-.59-1.03-1.03c-.25-.44-.37-.95-.37-1.54s.12-1.09.37-1.53.59-.79,1.03-1.03c.44-.25.93-.37,1.48-.37.51,0,.97.11,1.37.34.4.23.72.56.95,1,.23.44.35.97.35,1.6s-.12,1.17-.36,1.6c-.24.44-.56.77-.96,1-.4.23-.85.35-1.36.35ZM277.57,766.72c.41,0,.78-.09,1.11-.28.33-.19.58-.45.77-.79.19-.34.28-.74.28-1.18s-.09-.84-.28-1.18c-.19-.34-.44-.6-.77-.79-.33-.19-.7-.29-1.11-.29s-.77.1-1.09.29c-.32.19-.58.46-.77.79-.19.34-.29.73-.29,1.18s.1.84.29,1.18.45.61.77.79c.32.19.69.28,1.09.28ZM279.72,769.49v-3.85l.11-1.17-.08-1.16v-1.74h.75v7.91h-.78Z" fill="#052962" stroke-width="0"/>
      <path d="M284.83,767.42c-.49,0-.92-.09-1.29-.28-.37-.18-.65-.46-.85-.82-.2-.37-.3-.83-.3-1.38v-3.36h.78v3.27c0,.62.15,1.08.46,1.39.3.31.73.47,1.28.47.4,0,.75-.08,1.05-.25s.52-.41.68-.72c.16-.32.24-.69.24-1.13v-3.03h.78v5.78h-.75v-1.58l.12.29c-.18.42-.47.76-.85,1-.38.24-.83.36-1.35.36Z" fill="#052962" stroke-width="0"/>
      <path d="M292.06,767.42c-.6,0-1.13-.13-1.58-.38-.46-.25-.81-.6-1.07-1.04-.26-.44-.38-.95-.38-1.52s.12-1.08.37-1.52c.25-.44.58-.79,1.01-1.04.43-.25.91-.38,1.45-.38s1.02.12,1.45.37c.42.25.75.59,1,1.03.24.44.36.96.36,1.53,0,.04,0,.08,0,.12,0,.04,0,.08,0,.13h-5.03v-.58h4.61l-.31.23c0-.42-.09-.79-.27-1.12-.18-.33-.42-.58-.73-.76-.31-.18-.66-.28-1.07-.28s-.75.09-1.07.28c-.32.18-.56.44-.74.77-.18.33-.26.71-.26,1.13v.12c0,.44.1.83.29,1.16.19.33.47.59.81.78.35.19.75.28,1.19.28.35,0,.68-.06.98-.19.3-.12.57-.32.79-.57l.44.51c-.26.31-.58.54-.96.7-.38.16-.81.24-1.27.24Z" fill="#052962" stroke-width="0"/>
      <path d="M297.57,767.42c-.48,0-.93-.07-1.35-.2-.43-.14-.76-.31-1-.51l.35-.62c.24.18.54.33.9.46.37.13.75.19,1.16.19.55,0,.95-.09,1.19-.26.24-.17.36-.4.36-.69,0-.21-.07-.38-.2-.5-.14-.12-.31-.21-.53-.27s-.47-.12-.74-.16c-.27-.04-.54-.1-.81-.15-.27-.06-.51-.14-.73-.26-.22-.11-.4-.27-.53-.47-.14-.2-.2-.46-.2-.79s.09-.6.26-.85.43-.45.78-.59c.34-.14.76-.21,1.25-.21.37,0,.75.05,1.12.15s.68.23.92.39l-.34.63c-.26-.18-.53-.3-.83-.38-.29-.08-.59-.12-.88-.12-.52,0-.9.09-1.15.27-.25.18-.37.41-.37.69,0,.22.07.39.2.52.14.12.32.22.54.29s.47.13.74.17.54.1.8.16c.27.06.51.15.74.25s.4.26.54.45.2.45.2.76c0,.34-.09.63-.28.88-.19.25-.46.44-.81.57s-.79.2-1.29.2Z" fill="#052962" stroke-width="0"/>
    </g>
  </g>
  <g id="EST_LEG_VT">
    <rect id="REC_VT" x="82.96" y="783.95" width="39.57" height="22.42" fill="#052962" stroke-width="0"/>
    <g>
      <path d="M134.24,800.17v-7.7h.67l5.31,6.69h-.35v-6.69h.8v7.7h-.67l-5.3-6.69h.35v6.69h-.81Z" fill="#052962" stroke-width="0"/>
      <path d="M145.14,800.22c-.57,0-1.07-.13-1.51-.38-.44-.25-.79-.6-1.04-1.05s-.38-.95-.38-1.52.13-1.09.38-1.53c.26-.44.61-.79,1.04-1.03.44-.25.94-.37,1.51-.37s1.08.13,1.52.38c.44.25.79.6,1.04,1.03.25.44.38.94.38,1.52s-.13,1.08-.38,1.52c-.25.44-.6.79-1.05,1.04-.45.25-.95.38-1.52.38ZM145.14,799.53c.42,0,.79-.09,1.11-.28.32-.19.58-.45.76-.79.19-.34.28-.74.28-1.18s-.09-.85-.28-1.19c-.19-.34-.44-.6-.76-.79-.32-.19-.69-.28-1.1-.28s-.78.09-1.1.28c-.32.19-.58.45-.77.79-.19.34-.29.73-.29,1.19s.1.84.29,1.18.45.61.76.79c.32.19.68.28,1.09.28Z" fill="#052962" stroke-width="0"/>
      <path d="M156.67,794.34c.47,0,.88.09,1.23.27.35.18.62.45.81.82.19.37.29.83.29,1.39v3.36h-.78v-3.28c0-.61-.15-1.07-.43-1.38-.29-.31-.7-.47-1.23-.47-.4,0-.74.08-1.03.25-.29.17-.51.4-.67.71-.16.31-.24.69-.24,1.13v3.04h-.78v-3.28c0-.61-.15-1.07-.44-1.38-.29-.31-.7-.47-1.23-.47-.39,0-.73.08-1.02.25-.29.17-.52.4-.68.71-.16.31-.24.69-.24,1.13v3.04h-.78v-5.78h.75v1.56l-.12-.28c.18-.42.46-.75.85-.98s.86-.36,1.39-.36c.56,0,1.04.14,1.44.42.4.28.65.71.77,1.27l-.31-.12c.17-.47.47-.85.9-1.14.43-.29.94-.43,1.54-.43Z" fill="#052962" stroke-width="0"/>
      <path d="M160.9,800.17v-8.16h.78v4.09l-.11,1.17.08,1.17v1.74h-.75ZM163.88,800.22c-.51,0-.96-.12-1.36-.35-.4-.23-.72-.57-.96-1.01-.23-.44-.35-.97-.35-1.6s.12-1.16.36-1.6c.24-.44.56-.77.96-1s.85-.34,1.35-.34c.55,0,1.04.12,1.48.37.44.25.78.59,1.03,1.03.25.44.37.95.37,1.54s-.12,1.09-.37,1.54c-.25.44-.59.79-1.03,1.04-.44.25-.93.37-1.48.37ZM163.82,799.53c.41,0,.78-.09,1.1-.28.32-.19.58-.45.77-.79s.29-.74.29-1.18-.1-.85-.29-1.19c-.19-.34-.45-.6-.77-.79-.32-.19-.69-.28-1.1-.28s-.78.09-1.11.28c-.33.19-.58.45-.77.79-.19.34-.28.73-.28,1.19s.09.84.28,1.18c.19.34.44.61.77.79.33.19.7.28,1.11.28Z" fill="#052962" stroke-width="0"/>
      <path d="M168.12,800.17v-5.78h.75v1.57l-.08-.28c.16-.44.43-.78.81-1.01.38-.23.85-.35,1.42-.35v.76s-.06,0-.09,0c-.03,0-.06,0-.09,0-.61,0-1.09.19-1.43.56s-.52.9-.52,1.58v2.95h-.78Z" fill="#052962" stroke-width="0"/>
      <path d="M174.76,800.22c-.6,0-1.13-.13-1.58-.38-.46-.25-.81-.6-1.07-1.04-.26-.44-.38-.95-.38-1.52s.12-1.08.37-1.52c.25-.44.58-.79,1.01-1.04.43-.25.91-.38,1.45-.38s1.02.12,1.45.37c.42.25.75.59,1,1.03.24.44.36.96.36,1.53,0,.04,0,.08,0,.12,0,.04,0,.08,0,.13h-5.03v-.58h4.61l-.31.23c0-.42-.09-.79-.27-1.12-.18-.33-.42-.58-.73-.76-.31-.18-.66-.28-1.07-.28s-.75.09-1.07.28c-.32.18-.56.44-.74.77-.18.33-.26.71-.26,1.13v.12c0,.44.1.83.29,1.16.19.33.47.59.81.78.35.19.75.28,1.19.28.35,0,.68-.06.98-.19.3-.12.57-.32.79-.57l.44.51c-.26.31-.58.54-.96.7-.38.16-.81.24-1.27.24Z" fill="#052962" stroke-width="0"/>
      <path d="M183.67,800.22c-.55,0-1.04-.12-1.48-.37s-.78-.6-1.03-1.04c-.25-.44-.37-.96-.37-1.54s.12-1.1.37-1.54c.25-.44.59-.78,1.03-1.03.44-.25.93-.37,1.48-.37.51,0,.96.11,1.36.34.4.23.72.56.96,1,.24.44.36.97.36,1.6s-.12,1.16-.35,1.6c-.23.44-.55.78-.95,1.01-.4.23-.86.35-1.37.35ZM183.72,799.53c.41,0,.78-.09,1.11-.28.33-.19.58-.45.77-.79.19-.34.28-.74.28-1.18s-.09-.85-.28-1.19c-.19-.34-.44-.6-.77-.79-.33-.19-.7-.28-1.11-.28s-.77.09-1.09.28c-.32.19-.58.45-.77.79-.19.34-.29.73-.29,1.19s.1.84.29,1.18.45.61.77.79c.32.19.69.28,1.09.28ZM185.9,800.17v-1.74l.08-1.17-.11-1.17v-4.09h.78v8.16h-.75Z" fill="#052962" stroke-width="0"/>
      <path d="M191.05,800.22c-.6,0-1.13-.13-1.58-.38-.46-.25-.81-.6-1.07-1.04-.26-.44-.38-.95-.38-1.52s.12-1.08.37-1.52c.25-.44.58-.79,1.01-1.04.43-.25.91-.38,1.45-.38s1.02.12,1.45.37c.42.25.75.59,1,1.03.24.44.36.96.36,1.53,0,.04,0,.08,0,.12,0,.04,0,.08,0,.13h-5.03v-.58h4.61l-.31.23c0-.42-.09-.79-.27-1.12-.18-.33-.42-.58-.73-.76-.31-.18-.66-.28-1.07-.28s-.75.09-1.07.28c-.32.18-.56.44-.74.77-.18.33-.26.71-.26,1.13v.12c0,.44.1.83.29,1.16.19.33.47.59.81.78.35.19.75.28,1.19.28.35,0,.68-.06.98-.19.3-.12.57-.32.79-.57l.44.51c-.26.31-.58.54-.96.7-.38.16-.81.24-1.27.24Z" fill="#052962" stroke-width="0"/>
      <path d="M199.14,800.17l-2.56-5.78h.81l2.35,5.36h-.38l2.39-5.36h.77l-2.57,5.78h-.8Z" fill="#052962" stroke-width="0"/>
      <path d="M205.74,800.22c-.57,0-1.07-.13-1.51-.38-.44-.25-.79-.6-1.04-1.05s-.38-.95-.38-1.52.13-1.09.38-1.53c.26-.44.61-.79,1.04-1.03.44-.25.94-.37,1.51-.37s1.08.13,1.52.38c.44.25.79.6,1.04,1.03.25.44.38.94.38,1.52s-.13,1.08-.38,1.52c-.25.44-.6.79-1.05,1.04-.45.25-.95.38-1.52.38ZM205.74,799.53c.42,0,.79-.09,1.11-.28.32-.19.58-.45.76-.79.19-.34.28-.74.28-1.18s-.09-.85-.28-1.19c-.19-.34-.44-.6-.76-.79-.32-.19-.69-.28-1.1-.28s-.78.09-1.1.28c-.32.19-.58.45-.77.79-.19.34-.29.73-.29,1.19s.1.84.29,1.18.45.61.76.79c.32.19.68.28,1.09.28Z" fill="#052962" stroke-width="0"/>
      <path d="M210.45,793.12c-.16,0-.3-.06-.41-.17-.11-.11-.17-.24-.17-.4s.05-.28.17-.39.25-.16.41-.16.3.05.41.15c.11.1.17.23.17.38s-.05.3-.16.41c-.11.11-.24.17-.41.17ZM210.05,800.17v-5.78h.78v5.78h-.78Z" fill="#052962" stroke-width="0"/>
      <path d="M211.88,795.04v-.65h3.58v.65h-3.58ZM214.61,800.22c-.54,0-.96-.15-1.25-.44s-.44-.71-.44-1.24v-5.42h.78v5.38c0,.34.09.6.26.78.17.18.42.28.74.28.34,0,.63-.1.86-.3l.27.56c-.15.14-.34.24-.56.31-.22.07-.44.1-.67.1Z" fill="#052962" stroke-width="0"/>
      <path d="M219.4,800.22c-.49,0-.92-.09-1.29-.28-.37-.18-.65-.46-.85-.82-.2-.37-.3-.83-.3-1.38v-3.36h.78v3.27c0,.62.15,1.08.46,1.39.3.31.73.47,1.28.47.4,0,.75-.08,1.05-.25s.52-.41.68-.72c.16-.32.24-.69.24-1.13v-3.03h.78v5.78h-.75v-1.58l.12.29c-.18.42-.47.76-.85,1-.38.24-.83.36-1.35.36Z" fill="#052962" stroke-width="0"/>
      <path d="M224.18,800.17v-5.78h.75v1.57l-.08-.28c.16-.44.43-.78.81-1.01.38-.23.85-.35,1.42-.35v.76s-.06,0-.09,0c-.03,0-.06,0-.09,0-.61,0-1.09.19-1.43.56s-.52.9-.52,1.58v2.95h-.78Z" fill="#052962" stroke-width="0"/>
      <path d="M230.81,800.22c-.6,0-1.13-.13-1.58-.38-.46-.25-.81-.6-1.07-1.04-.26-.44-.38-.95-.38-1.52s.12-1.08.37-1.52c.25-.44.58-.79,1.01-1.04.43-.25.91-.38,1.45-.38s1.02.12,1.45.37c.42.25.75.59,1,1.03.24.44.36.96.36,1.53,0,.04,0,.08,0,.12,0,.04,0,.08,0,.13h-5.03v-.58h4.61l-.31.23c0-.42-.09-.79-.27-1.12-.18-.33-.42-.58-.73-.76-.31-.18-.66-.28-1.07-.28s-.75.09-1.07.28c-.32.18-.56.44-.74.77-.18.33-.26.71-.26,1.13v.12c0,.44.1.83.29,1.16.19.33.47.59.81.78.35.19.75.28,1.19.28.35,0,.68-.06.98-.19.3-.12.57-.32.79-.57l.44.51c-.26.31-.58.54-.96.7-.38.16-.81.24-1.27.24Z" fill="#052962" stroke-width="0"/>
      <path d="M236.32,800.22c-.48,0-.93-.07-1.35-.2-.43-.14-.76-.31-1-.51l.35-.62c.24.18.54.33.9.46.37.13.75.19,1.16.19.55,0,.95-.09,1.19-.26.24-.17.36-.4.36-.69,0-.21-.07-.38-.2-.5-.14-.12-.31-.21-.53-.27s-.47-.12-.74-.16c-.27-.04-.54-.1-.81-.15-.27-.06-.51-.14-.73-.26-.22-.11-.4-.27-.53-.47-.14-.2-.2-.46-.2-.79s.09-.6.26-.85.43-.45.78-.59c.34-.14.76-.21,1.25-.21.37,0,.75.05,1.12.15s.68.23.92.39l-.34.63c-.26-.18-.53-.3-.83-.38-.29-.08-.59-.12-.88-.12-.52,0-.9.09-1.15.27-.25.18-.37.41-.37.69,0,.22.07.39.2.52.14.12.32.22.54.29s.47.13.74.17.54.1.8.16c.27.06.51.15.74.25s.4.26.54.45.2.45.2.76c0,.34-.09.63-.28.88-.19.25-.46.44-.81.57s-.79.2-1.29.2Z" fill="#052962" stroke-width="0"/>
      <path d="M241.66,795.04v-.65h3.58v.65h-3.58ZM244.39,800.22c-.54,0-.96-.15-1.25-.44s-.44-.71-.44-1.24v-5.42h.78v5.38c0,.34.09.6.26.78.17.18.42.28.74.28.34,0,.63-.1.86-.3l.27.56c-.15.14-.34.24-.56.31-.22.07-.44.1-.67.1Z" fill="#052962" stroke-width="0"/>
      <path d="M249.15,800.22c-.57,0-1.07-.13-1.51-.38-.44-.25-.79-.6-1.04-1.05s-.38-.95-.38-1.52.13-1.09.38-1.53c.26-.44.61-.79,1.04-1.03.44-.25.94-.37,1.51-.37s1.08.13,1.52.38c.44.25.79.6,1.04,1.03.25.44.38.94.38,1.52s-.13,1.08-.38,1.52c-.25.44-.6.79-1.05,1.04-.45.25-.95.38-1.52.38ZM249.15,799.53c.42,0,.79-.09,1.11-.28.32-.19.58-.45.76-.79.19-.34.28-.74.28-1.18s-.09-.85-.28-1.19c-.19-.34-.44-.6-.76-.79-.32-.19-.69-.28-1.1-.28s-.78.09-1.1.28c-.32.19-.58.45-.77.79-.19.34-.29.73-.29,1.19s.1.84.29,1.18.45.61.76.79c.32.19.68.28,1.09.28Z" fill="#052962" stroke-width="0"/>
      <path d="M252.56,795.04v-.65h3.58v.65h-3.58ZM255.29,800.22c-.54,0-.96-.15-1.25-.44s-.44-.71-.44-1.24v-5.42h.78v5.38c0,.34.09.6.26.78.17.18.42.28.74.28.34,0,.63-.1.86-.3l.27.56c-.15.14-.34.24-.56.31-.22.07-.44.1-.67.1Z" fill="#052962" stroke-width="0"/>
      <path d="M259.32,800.22c-.43,0-.81-.07-1.13-.21-.32-.14-.56-.34-.73-.59-.17-.25-.25-.54-.25-.87,0-.3.07-.57.21-.82.14-.25.38-.44.7-.59s.76-.23,1.31-.23h1.99v.58h-1.97c-.56,0-.94.1-1.16.3-.22.2-.32.44-.32.74,0,.33.13.59.38.79s.62.3,1.08.3.82-.1,1.14-.3c.32-.2.55-.49.7-.88l.18.54c-.15.38-.4.69-.76.91-.36.23-.82.34-1.37.34ZM261.31,800.17v-1.28l-.03-.21v-2.13c0-.49-.14-.87-.41-1.13-.28-.26-.68-.4-1.23-.4-.37,0-.73.06-1.07.19-.34.12-.62.29-.86.5l-.35-.58c.29-.25.65-.44,1.06-.58.41-.14.84-.2,1.3-.2.75,0,1.33.19,1.73.56s.61.93.61,1.69v3.59h-.75Z" fill="#052962" stroke-width="0"/>
      <path d="M263.95,800.17v-8.16h.78v8.16h-.78Z" fill="#052962" stroke-width="0"/>
      <path d="M269.14,800.22c-.6,0-1.13-.13-1.58-.38-.46-.25-.81-.6-1.07-1.04-.26-.44-.38-.95-.38-1.52s.12-1.08.37-1.52c.25-.44.58-.79,1.01-1.04.43-.25.91-.38,1.45-.38s1.02.12,1.45.37c.42.25.75.59,1,1.03.24.44.36.96.36,1.53,0,.04,0,.08,0,.12,0,.04,0,.08,0,.13h-5.03v-.58h4.61l-.31.23c0-.42-.09-.79-.27-1.12-.18-.33-.42-.58-.73-.76-.31-.18-.66-.28-1.07-.28s-.75.09-1.07.28c-.32.18-.56.44-.74.77-.18.33-.26.71-.26,1.13v.12c0,.44.1.83.29,1.16.19.33.47.59.81.78.35.19.75.28,1.19.28.35,0,.68-.06.98-.19.3-.12.57-.32.79-.57l.44.51c-.26.31-.58.54-.96.7-.38.16-.81.24-1.27.24Z" fill="#052962" stroke-width="0"/>
      <path d="M274.65,800.22c-.48,0-.93-.07-1.35-.2-.43-.14-.76-.31-1-.51l.35-.62c.24.18.54.33.9.46.37.13.75.19,1.16.19.55,0,.95-.09,1.19-.26.24-.17.36-.4.36-.69,0-.21-.07-.38-.2-.5-.14-.12-.31-.21-.53-.27s-.47-.12-.74-.16c-.27-.04-.54-.1-.81-.15-.27-.06-.51-.14-.73-.26-.22-.11-.4-.27-.53-.47-.14-.2-.2-.46-.2-.79s.09-.6.26-.85.43-.45.78-.59c.34-.14.76-.21,1.25-.21.37,0,.75.05,1.12.15s.68.23.92.39l-.34.63c-.26-.18-.53-.3-.83-.38-.29-.08-.59-.12-.88-.12-.52,0-.9.09-1.15.27-.25.18-.37.41-.37.69,0,.22.07.39.2.52.14.12.32.22.54.29s.47.13.74.17.54.1.8.16c.27.06.51.15.74.25s.4.26.54.45.2.45.2.76c0,.34-.09.63-.28.88-.19.25-.46.44-.81.57s-.79.2-1.29.2Z" fill="#052962" stroke-width="0"/>
    </g>
  </g>
</svg>