<?xml version="1.0" encoding="UTF-8"?>
<svg id="Calque_1" data-name="Calque 1" xmlns="http://www.w3.org/2000/svg" xmlns:xlink="http://www.w3.org/1999/xlink" viewBox="0 0 1185.5 663.22">
  <defs>
    <clipPath id="clippath">
      <rect x="301.15" y="227.95" width="405.39" height="47.55" rx="12" ry="12" fill="none" stroke-width="0"/>
    </clipPath>
    <clipPath id="clippath-1">
      <rect x="298.66" y="401.82" width="431.89" height="47.55" rx="12" ry="12" fill="none" stroke-width="0"/>
    </clipPath>
    <clipPath id="clippath-2">
      <rect x="301.15" y="309.25" width="423.19" height="47.55" rx="12" ry="12" fill="none" stroke-width="0"/>
    </clipPath>
    <clipPath id="clippath-3">
      <path d="M998.59,308.27h-51.01v18.76h51.01c5.16,0,9.38-4.22,9.38-9.38s-4.22-9.38-9.38-9.38Z" fill="none" stroke-width="0"/>
    </clipPath>
  </defs>
  <g id="VT_2024">
    <g clip-path="url(#clippath)">
      <line x1="523.03" y1="30.98" x2="21.11" y2="488.96" fill="none" stroke="#95b2c0" stroke-miterlimit="10"/>
      <line x1="531.15" y1="30.98" x2="29.23" y2="488.96" fill="none" stroke="#95b2c0" stroke-miterlimit="10"/>
      <line x1="539.27" y1="30.98" x2="37.34" y2="488.96" fill="none" stroke="#95b2c0" stroke-miterlimit="10"/>
      <line x1="547.38" y1="30.98" x2="45.46" y2="488.96" fill="none" stroke="#95b2c0" stroke-miterlimit="10"/>
      <line x1="555.5" y1="30.98" x2="53.57" y2="488.96" fill="none" stroke="#95b2c0" stroke-miterlimit="10"/>
      <line x1="563.61" y1="30.98" x2="61.69" y2="488.96" fill="none" stroke="#95b2c0" stroke-miterlimit="10"/>
      <line x1="571.73" y1="30.98" x2="69.81" y2="488.96" fill="none" stroke="#95b2c0" stroke-miterlimit="10"/>
      <line x1="579.85" y1="30.98" x2="77.92" y2="488.96" fill="none" stroke="#95b2c0" stroke-miterlimit="10"/>
      <line x1="587.96" y1="30.98" x2="86.04" y2="488.96" fill="none" stroke="#95b2c0" stroke-miterlimit="10"/>
      <line x1="596.08" y1="30.98" x2="94.15" y2="488.96" fill="none" stroke="#95b2c0" stroke-miterlimit="10"/>
      <line x1="604.19" y1="30.98" x2="102.27" y2="488.96" fill="none" stroke="#95b2c0" stroke-miterlimit="10"/>
      <line x1="612.31" y1="30.98" x2="110.39" y2="488.96" fill="none" stroke="#95b2c0" stroke-miterlimit="10"/>
      <line x1="620.43" y1="30.98" x2="118.5" y2="488.96" fill="none" stroke="#95b2c0" stroke-miterlimit="10"/>
      <line x1="628.54" y1="30.98" x2="126.62" y2="488.96" fill="none" stroke="#95b2c0" stroke-miterlimit="10"/>
      <line x1="636.66" y1="30.98" x2="134.73" y2="488.96" fill="none" stroke="#95b2c0" stroke-miterlimit="10"/>
      <line x1="644.77" y1="30.98" x2="142.85" y2="488.96" fill="none" stroke="#95b2c0" stroke-miterlimit="10"/>
      <line x1="652.89" y1="30.98" x2="150.97" y2="488.96" fill="none" stroke="#95b2c0" stroke-miterlimit="10"/>
      <line x1="661" y1="30.98" x2="159.08" y2="488.96" fill="none" stroke="#95b2c0" stroke-miterlimit="10"/>
      <line x1="669.12" y1="30.98" x2="167.2" y2="488.96" fill="none" stroke="#95b2c0" stroke-miterlimit="10"/>
      <line x1="677.24" y1="30.98" x2="175.31" y2="488.96" fill="none" stroke="#95b2c0" stroke-miterlimit="10"/>
      <line x1="685.35" y1="30.98" x2="183.43" y2="488.96" fill="none" stroke="#95b2c0" stroke-miterlimit="10"/>
      <line x1="693.47" y1="30.98" x2="191.54" y2="488.96" fill="none" stroke="#95b2c0" stroke-miterlimit="10"/>
      <line x1="701.58" y1="30.98" x2="199.66" y2="488.96" fill="none" stroke="#95b2c0" stroke-miterlimit="10"/>
      <line x1="709.7" y1="30.98" x2="207.78" y2="488.96" fill="none" stroke="#95b2c0" stroke-miterlimit="10"/>
      <line x1="717.82" y1="30.98" x2="215.89" y2="488.96" fill="none" stroke="#95b2c0" stroke-miterlimit="10"/>
      <line x1="725.93" y1="30.98" x2="224.01" y2="488.96" fill="none" stroke="#95b2c0" stroke-miterlimit="10"/>
      <line x1="734.05" y1="30.98" x2="232.12" y2="488.96" fill="none" stroke="#95b2c0" stroke-miterlimit="10"/>
      <line x1="742.16" y1="30.98" x2="240.24" y2="488.96" fill="none" stroke="#95b2c0" stroke-miterlimit="10"/>
      <line x1="750.28" y1="30.98" x2="248.36" y2="488.96" fill="none" stroke="#95b2c0" stroke-miterlimit="10"/>
      <line x1="758.39" y1="30.98" x2="256.47" y2="488.96" fill="none" stroke="#95b2c0" stroke-miterlimit="10"/>
      <line x1="766.51" y1="30.98" x2="264.59" y2="488.96" fill="none" stroke="#95b2c0" stroke-miterlimit="10"/>
      <line x1="774.63" y1="30.98" x2="272.7" y2="488.96" fill="none" stroke="#95b2c0" stroke-miterlimit="10"/>
      <line x1="782.74" y1="30.98" x2="280.82" y2="488.96" fill="none" stroke="#95b2c0" stroke-miterlimit="10"/>
      <line x1="790.86" y1="30.98" x2="288.93" y2="488.96" fill="none" stroke="#95b2c0" stroke-miterlimit="10"/>
      <line x1="798.97" y1="30.98" x2="297.05" y2="488.96" fill="none" stroke="#95b2c0" stroke-miterlimit="10"/>
      <line x1="807.09" y1="30.98" x2="305.17" y2="488.96" fill="none" stroke="#95b2c0" stroke-miterlimit="10"/>
      <line x1="815.21" y1="30.98" x2="313.28" y2="488.96" fill="none" stroke="#95b2c0" stroke-miterlimit="10"/>
      <line x1="823.32" y1="30.98" x2="321.4" y2="488.96" fill="none" stroke="#95b2c0" stroke-miterlimit="10"/>
      <line x1="831.44" y1="30.98" x2="329.51" y2="488.96" fill="none" stroke="#95b2c0" stroke-miterlimit="10"/>
      <line x1="839.55" y1="30.98" x2="337.63" y2="488.96" fill="none" stroke="#95b2c0" stroke-miterlimit="10"/>
      <line x1="847.67" y1="30.98" x2="345.75" y2="488.96" fill="none" stroke="#95b2c0" stroke-miterlimit="10"/>
      <line x1="855.78" y1="30.98" x2="353.86" y2="488.96" fill="none" stroke="#95b2c0" stroke-miterlimit="10"/>
      <line x1="863.9" y1="30.98" x2="361.98" y2="488.96" fill="none" stroke="#95b2c0" stroke-miterlimit="10"/>
      <line x1="872.02" y1="30.98" x2="370.09" y2="488.96" fill="none" stroke="#95b2c0" stroke-miterlimit="10"/>
      <line x1="880.13" y1="30.98" x2="378.21" y2="488.96" fill="none" stroke="#95b2c0" stroke-miterlimit="10"/>
      <line x1="888.25" y1="30.98" x2="386.32" y2="488.96" fill="none" stroke="#95b2c0" stroke-miterlimit="10"/>
      <line x1="896.36" y1="30.98" x2="394.44" y2="488.96" fill="none" stroke="#95b2c0" stroke-miterlimit="10"/>
      <line x1="904.48" y1="30.98" x2="402.56" y2="488.96" fill="none" stroke="#95b2c0" stroke-miterlimit="10"/>
      <line x1="912.6" y1="30.98" x2="410.67" y2="488.96" fill="none" stroke="#95b2c0" stroke-miterlimit="10"/>
      <line x1="920.71" y1="30.98" x2="418.79" y2="488.96" fill="none" stroke="#95b2c0" stroke-miterlimit="10"/>
      <line x1="928.83" y1="30.98" x2="426.9" y2="488.96" fill="none" stroke="#95b2c0" stroke-miterlimit="10"/>
      <line x1="936.94" y1="30.98" x2="435.02" y2="488.96" fill="none" stroke="#95b2c0" stroke-miterlimit="10"/>
      <line x1="945.06" y1="30.98" x2="443.14" y2="488.96" fill="none" stroke="#95b2c0" stroke-miterlimit="10"/>
      <line x1="953.18" y1="30.98" x2="451.25" y2="488.96" fill="none" stroke="#95b2c0" stroke-miterlimit="10"/>
      <line x1="961.29" y1="30.98" x2="459.37" y2="488.96" fill="none" stroke="#95b2c0" stroke-miterlimit="10"/>
      <line x1="969.41" y1="30.98" x2="467.48" y2="488.96" fill="none" stroke="#95b2c0" stroke-miterlimit="10"/>
      <line x1="977.52" y1="30.98" x2="475.6" y2="488.96" fill="none" stroke="#95b2c0" stroke-miterlimit="10"/>
    </g>
  </g>
  <g id="VT_2022">
    <g clip-path="url(#clippath-1)">
      <line x1="535.05" y1="204.85" x2=".33" y2="662.84" fill="none" stroke="#acbfcd" stroke-miterlimit="10"/>
      <line x1="543.7" y1="204.85" x2="8.97" y2="662.84" fill="none" stroke="#acbfcd" stroke-miterlimit="10"/>
      <line x1="552.35" y1="204.85" x2="17.62" y2="662.84" fill="none" stroke="#acbfcd" stroke-miterlimit="10"/>
      <line x1="560.99" y1="204.85" x2="26.26" y2="662.84" fill="none" stroke="#acbfcd" stroke-miterlimit="10"/>
      <line x1="569.64" y1="204.85" x2="34.91" y2="662.84" fill="none" stroke="#acbfcd" stroke-miterlimit="10"/>
      <line x1="578.28" y1="204.85" x2="43.56" y2="662.84" fill="none" stroke="#acbfcd" stroke-miterlimit="10"/>
      <line x1="586.93" y1="204.85" x2="52.2" y2="662.84" fill="none" stroke="#acbfcd" stroke-miterlimit="10"/>
      <line x1="595.58" y1="204.85" x2="60.85" y2="662.84" fill="none" stroke="#acbfcd" stroke-miterlimit="10"/>
      <line x1="604.22" y1="204.85" x2="69.5" y2="662.84" fill="none" stroke="#acbfcd" stroke-miterlimit="10"/>
      <line x1="612.87" y1="204.85" x2="78.14" y2="662.84" fill="none" stroke="#acbfcd" stroke-miterlimit="10"/>
      <line x1="621.52" y1="204.85" x2="86.79" y2="662.84" fill="none" stroke="#acbfcd" stroke-miterlimit="10"/>
      <line x1="630.16" y1="204.85" x2="95.43" y2="662.84" fill="none" stroke="#acbfcd" stroke-miterlimit="10"/>
      <line x1="638.81" y1="204.85" x2="104.08" y2="662.84" fill="none" stroke="#acbfcd" stroke-miterlimit="10"/>
      <line x1="647.46" y1="204.85" x2="112.73" y2="662.84" fill="none" stroke="#acbfcd" stroke-miterlimit="10"/>
      <line x1="656.1" y1="204.85" x2="121.37" y2="662.84" fill="none" stroke="#acbfcd" stroke-miterlimit="10"/>
      <line x1="664.75" y1="204.85" x2="130.02" y2="662.84" fill="none" stroke="#acbfcd" stroke-miterlimit="10"/>
      <line x1="673.39" y1="204.85" x2="138.67" y2="662.84" fill="none" stroke="#acbfcd" stroke-miterlimit="10"/>
      <line x1="682.04" y1="204.85" x2="147.31" y2="662.84" fill="none" stroke="#acbfcd" stroke-miterlimit="10"/>
      <line x1="690.69" y1="204.85" x2="155.96" y2="662.84" fill="none" stroke="#acbfcd" stroke-miterlimit="10"/>
      <line x1="699.33" y1="204.85" x2="164.6" y2="662.84" fill="none" stroke="#acbfcd" stroke-miterlimit="10"/>
      <line x1="707.98" y1="204.85" x2="173.25" y2="662.84" fill="none" stroke="#acbfcd" stroke-miterlimit="10"/>
      <line x1="716.63" y1="204.85" x2="181.9" y2="662.84" fill="none" stroke="#acbfcd" stroke-miterlimit="10"/>
      <line x1="725.27" y1="204.85" x2="190.54" y2="662.84" fill="none" stroke="#acbfcd" stroke-miterlimit="10"/>
      <line x1="733.92" y1="204.85" x2="199.19" y2="662.84" fill="none" stroke="#acbfcd" stroke-miterlimit="10"/>
      <line x1="742.56" y1="204.85" x2="207.84" y2="662.84" fill="none" stroke="#acbfcd" stroke-miterlimit="10"/>
      <line x1="751.21" y1="204.85" x2="216.48" y2="662.84" fill="none" stroke="#acbfcd" stroke-miterlimit="10"/>
      <line x1="759.86" y1="204.85" x2="225.13" y2="662.84" fill="none" stroke="#acbfcd" stroke-miterlimit="10"/>
      <line x1="768.5" y1="204.85" x2="233.77" y2="662.84" fill="none" stroke="#acbfcd" stroke-miterlimit="10"/>
      <line x1="777.15" y1="204.85" x2="242.42" y2="662.84" fill="none" stroke="#acbfcd" stroke-miterlimit="10"/>
      <line x1="785.8" y1="204.85" x2="251.07" y2="662.84" fill="none" stroke="#acbfcd" stroke-miterlimit="10"/>
      <line x1="794.44" y1="204.85" x2="259.71" y2="662.84" fill="none" stroke="#acbfcd" stroke-miterlimit="10"/>
      <line x1="803.09" y1="204.85" x2="268.36" y2="662.84" fill="none" stroke="#acbfcd" stroke-miterlimit="10"/>
      <line x1="811.73" y1="204.85" x2="277.01" y2="662.84" fill="none" stroke="#acbfcd" stroke-miterlimit="10"/>
      <line x1="820.38" y1="204.85" x2="285.65" y2="662.84" fill="none" stroke="#acbfcd" stroke-miterlimit="10"/>
      <line x1="829.03" y1="204.85" x2="294.3" y2="662.84" fill="none" stroke="#acbfcd" stroke-miterlimit="10"/>
      <line x1="837.67" y1="204.85" x2="302.95" y2="662.84" fill="none" stroke="#acbfcd" stroke-miterlimit="10"/>
      <line x1="846.32" y1="204.85" x2="311.59" y2="662.84" fill="none" stroke="#acbfcd" stroke-miterlimit="10"/>
      <line x1="854.97" y1="204.85" x2="320.24" y2="662.84" fill="none" stroke="#acbfcd" stroke-miterlimit="10"/>
      <line x1="863.61" y1="204.85" x2="328.88" y2="662.84" fill="none" stroke="#acbfcd" stroke-miterlimit="10"/>
      <line x1="872.26" y1="204.85" x2="337.53" y2="662.84" fill="none" stroke="#acbfcd" stroke-miterlimit="10"/>
      <line x1="880.91" y1="204.85" x2="346.18" y2="662.84" fill="none" stroke="#acbfcd" stroke-miterlimit="10"/>
      <line x1="889.55" y1="204.85" x2="354.82" y2="662.84" fill="none" stroke="#acbfcd" stroke-miterlimit="10"/>
      <line x1="898.2" y1="204.85" x2="363.47" y2="662.84" fill="none" stroke="#acbfcd" stroke-miterlimit="10"/>
      <line x1="906.84" y1="204.85" x2="372.12" y2="662.84" fill="none" stroke="#acbfcd" stroke-miterlimit="10"/>
      <line x1="915.49" y1="204.85" x2="380.76" y2="662.84" fill="none" stroke="#acbfcd" stroke-miterlimit="10"/>
      <line x1="924.14" y1="204.85" x2="389.41" y2="662.84" fill="none" stroke="#acbfcd" stroke-miterlimit="10"/>
      <line x1="932.78" y1="204.85" x2="398.05" y2="662.84" fill="none" stroke="#acbfcd" stroke-miterlimit="10"/>
      <line x1="941.43" y1="204.85" x2="406.7" y2="662.84" fill="none" stroke="#acbfcd" stroke-miterlimit="10"/>
      <line x1="950.08" y1="204.85" x2="415.35" y2="662.84" fill="none" stroke="#acbfcd" stroke-miterlimit="10"/>
      <line x1="958.72" y1="204.85" x2="423.99" y2="662.84" fill="none" stroke="#acbfcd" stroke-miterlimit="10"/>
      <line x1="967.37" y1="204.85" x2="432.64" y2="662.84" fill="none" stroke="#acbfcd" stroke-miterlimit="10"/>
      <line x1="976.01" y1="204.85" x2="441.29" y2="662.84" fill="none" stroke="#acbfcd" stroke-miterlimit="10"/>
      <line x1="984.66" y1="204.85" x2="449.93" y2="662.84" fill="none" stroke="#acbfcd" stroke-miterlimit="10"/>
      <line x1="993.31" y1="204.85" x2="458.58" y2="662.84" fill="none" stroke="#acbfcd" stroke-miterlimit="10"/>
      <line x1="1001.95" y1="204.85" x2="467.22" y2="662.84" fill="none" stroke="#acbfcd" stroke-miterlimit="10"/>
      <line x1="1010.6" y1="204.85" x2="475.87" y2="662.84" fill="none" stroke="#acbfcd" stroke-miterlimit="10"/>
      <line x1="1019.25" y1="204.85" x2="484.52" y2="662.84" fill="none" stroke="#acbfcd" stroke-miterlimit="10"/>
    </g>
  </g>
  <g id="VT_2023">
    <g clip-path="url(#clippath-2)">
      <line x1="532.78" y1="112.28" x2="8.82" y2="570.26" fill="none" stroke="#95b2c0" stroke-miterlimit="10"/>
      <line x1="541.25" y1="112.28" x2="17.29" y2="570.26" fill="none" stroke="#95b2c0" stroke-miterlimit="10"/>
      <line x1="549.72" y1="112.28" x2="25.76" y2="570.26" fill="none" stroke="#95b2c0" stroke-miterlimit="10"/>
      <line x1="558.19" y1="112.28" x2="34.23" y2="570.26" fill="none" stroke="#95b2c0" stroke-miterlimit="10"/>
      <line x1="566.66" y1="112.28" x2="42.71" y2="570.26" fill="none" stroke="#95b2c0" stroke-miterlimit="10"/>
      <line x1="575.14" y1="112.28" x2="51.18" y2="570.26" fill="none" stroke="#95b2c0" stroke-miterlimit="10"/>
      <line x1="583.61" y1="112.28" x2="59.65" y2="570.26" fill="none" stroke="#95b2c0" stroke-miterlimit="10"/>
      <line x1="592.08" y1="112.28" x2="68.12" y2="570.26" fill="none" stroke="#95b2c0" stroke-miterlimit="10"/>
      <line x1="600.55" y1="112.28" x2="76.59" y2="570.26" fill="none" stroke="#95b2c0" stroke-miterlimit="10"/>
      <line x1="609.03" y1="112.28" x2="85.07" y2="570.26" fill="none" stroke="#95b2c0" stroke-miterlimit="10"/>
      <line x1="617.5" y1="112.28" x2="93.54" y2="570.26" fill="none" stroke="#95b2c0" stroke-miterlimit="10"/>
      <line x1="625.97" y1="112.28" x2="102.01" y2="570.26" fill="none" stroke="#95b2c0" stroke-miterlimit="10"/>
      <line x1="634.44" y1="112.28" x2="110.48" y2="570.26" fill="none" stroke="#95b2c0" stroke-miterlimit="10"/>
      <line x1="642.91" y1="112.28" x2="118.96" y2="570.26" fill="none" stroke="#95b2c0" stroke-miterlimit="10"/>
      <line x1="651.39" y1="112.28" x2="127.43" y2="570.26" fill="none" stroke="#95b2c0" stroke-miterlimit="10"/>
      <line x1="659.86" y1="112.28" x2="135.9" y2="570.26" fill="none" stroke="#95b2c0" stroke-miterlimit="10"/>
      <line x1="668.33" y1="112.28" x2="144.37" y2="570.26" fill="none" stroke="#95b2c0" stroke-miterlimit="10"/>
      <line x1="676.8" y1="112.28" x2="152.84" y2="570.26" fill="none" stroke="#95b2c0" stroke-miterlimit="10"/>
      <line x1="685.27" y1="112.28" x2="161.32" y2="570.26" fill="none" stroke="#95b2c0" stroke-miterlimit="10"/>
      <line x1="693.75" y1="112.28" x2="169.79" y2="570.26" fill="none" stroke="#95b2c0" stroke-miterlimit="10"/>
      <line x1="702.22" y1="112.28" x2="178.26" y2="570.26" fill="none" stroke="#95b2c0" stroke-miterlimit="10"/>
      <line x1="710.69" y1="112.28" x2="186.73" y2="570.26" fill="none" stroke="#95b2c0" stroke-miterlimit="10"/>
      <line x1="719.16" y1="112.28" x2="195.2" y2="570.26" fill="none" stroke="#95b2c0" stroke-miterlimit="10"/>
      <line x1="727.64" y1="112.28" x2="203.68" y2="570.26" fill="none" stroke="#95b2c0" stroke-miterlimit="10"/>
      <line x1="736.11" y1="112.28" x2="212.15" y2="570.26" fill="none" stroke="#95b2c0" stroke-miterlimit="10"/>
      <line x1="744.58" y1="112.28" x2="220.62" y2="570.26" fill="none" stroke="#95b2c0" stroke-miterlimit="10"/>
      <line x1="753.05" y1="112.28" x2="229.09" y2="570.26" fill="none" stroke="#95b2c0" stroke-miterlimit="10"/>
      <line x1="761.52" y1="112.28" x2="237.57" y2="570.26" fill="none" stroke="#95b2c0" stroke-miterlimit="10"/>
      <line x1="770" y1="112.28" x2="246.04" y2="570.26" fill="none" stroke="#95b2c0" stroke-miterlimit="10"/>
      <line x1="778.47" y1="112.28" x2="254.51" y2="570.26" fill="none" stroke="#95b2c0" stroke-miterlimit="10"/>
      <line x1="786.94" y1="112.28" x2="262.98" y2="570.26" fill="none" stroke="#95b2c0" stroke-miterlimit="10"/>
      <line x1="795.41" y1="112.28" x2="271.45" y2="570.26" fill="none" stroke="#95b2c0" stroke-miterlimit="10"/>
      <line x1="803.88" y1="112.28" x2="279.93" y2="570.26" fill="none" stroke="#95b2c0" stroke-miterlimit="10"/>
      <line x1="812.36" y1="112.28" x2="288.4" y2="570.26" fill="none" stroke="#95b2c0" stroke-miterlimit="10"/>
      <line x1="820.83" y1="112.28" x2="296.87" y2="570.26" fill="none" stroke="#95b2c0" stroke-miterlimit="10"/>
      <line x1="829.3" y1="112.28" x2="305.34" y2="570.26" fill="none" stroke="#95b2c0" stroke-miterlimit="10"/>
      <line x1="837.77" y1="112.28" x2="313.81" y2="570.26" fill="none" stroke="#95b2c0" stroke-miterlimit="10"/>
      <line x1="846.25" y1="112.28" x2="322.29" y2="570.26" fill="none" stroke="#95b2c0" stroke-miterlimit="10"/>
      <line x1="854.72" y1="112.28" x2="330.76" y2="570.26" fill="none" stroke="#95b2c0" stroke-miterlimit="10"/>
      <line x1="863.19" y1="112.28" x2="339.23" y2="570.26" fill="none" stroke="#95b2c0" stroke-miterlimit="10"/>
      <line x1="871.66" y1="112.28" x2="347.7" y2="570.26" fill="none" stroke="#95b2c0" stroke-miterlimit="10"/>
      <line x1="880.13" y1="112.28" x2="356.18" y2="570.26" fill="none" stroke="#95b2c0" stroke-miterlimit="10"/>
      <line x1="888.61" y1="112.28" x2="364.65" y2="570.26" fill="none" stroke="#95b2c0" stroke-miterlimit="10"/>
      <line x1="897.08" y1="112.28" x2="373.12" y2="570.26" fill="none" stroke="#95b2c0" stroke-miterlimit="10"/>
      <line x1="905.55" y1="112.28" x2="381.59" y2="570.26" fill="none" stroke="#95b2c0" stroke-miterlimit="10"/>
      <line x1="914.02" y1="112.28" x2="390.06" y2="570.26" fill="none" stroke="#95b2c0" stroke-miterlimit="10"/>
      <line x1="922.49" y1="112.28" x2="398.54" y2="570.26" fill="none" stroke="#95b2c0" stroke-miterlimit="10"/>
      <line x1="930.97" y1="112.28" x2="407.01" y2="570.26" fill="none" stroke="#95b2c0" stroke-miterlimit="10"/>
      <line x1="939.44" y1="112.28" x2="415.48" y2="570.26" fill="none" stroke="#95b2c0" stroke-miterlimit="10"/>
      <line x1="947.91" y1="112.28" x2="423.95" y2="570.26" fill="none" stroke="#95b2c0" stroke-miterlimit="10"/>
      <line x1="956.38" y1="112.28" x2="432.42" y2="570.26" fill="none" stroke="#95b2c0" stroke-miterlimit="10"/>
      <line x1="964.86" y1="112.28" x2="440.9" y2="570.26" fill="none" stroke="#95b2c0" stroke-miterlimit="10"/>
      <line x1="973.33" y1="112.28" x2="449.37" y2="570.26" fill="none" stroke="#95b2c0" stroke-miterlimit="10"/>
      <line x1="981.8" y1="112.28" x2="457.84" y2="570.26" fill="none" stroke="#95b2c0" stroke-miterlimit="10"/>
      <line x1="990.27" y1="112.28" x2="466.31" y2="570.26" fill="none" stroke="#95b2c0" stroke-miterlimit="10"/>
      <line x1="998.74" y1="112.28" x2="474.79" y2="570.26" fill="none" stroke="#95b2c0" stroke-miterlimit="10"/>
      <line x1="1007.22" y1="112.28" x2="483.26" y2="570.26" fill="none" stroke="#95b2c0" stroke-miterlimit="10"/>
    </g>
  </g>
  <path id="VE_2022" d="M296.84,398.76v51.14c9.28-4.4,15.78-14.22,15.78-25.57h0c0-11.35-6.51-21.16-15.78-25.57Z" fill="#052962" stroke-width="0"/>
  <path id="VE_2023" d="M296.94,309.25v49.3c12.15-1.34,21.69-11.91,21.69-24.65h0c0-12.74-9.54-23.31-21.69-24.65Z" fill="#052962" stroke-width="0"/>
  <path id="VE_2024" d="M301.92,224.35h-5.25v50.8h5.25c13.97,0,25.4-11.43,25.4-25.4s-11.43-25.4-25.4-25.4Z" fill="#052962" stroke-width="0"/>
  <line x1="743.81" y1="39.94" x2="743.81" y2="600.14" fill="none" stroke="#052962" stroke-miterlimit="10" stroke-width=".15"/>
  <line x1="520.41" y1="39.94" x2="520.41" y2="600.14" fill="none" stroke="#052962" stroke-miterlimit="10" stroke-width=".15"/>
  <line x1="630.88" y1="40.16" x2="630.88" y2="600.35" fill="none" stroke="#052962" stroke-miterlimit="10" stroke-width=".15"/>
  <line x1="408.34" y1="39.08" x2="408.34" y2="599.28" fill="none" stroke="#052962" stroke-miterlimit="10" stroke-width=".15"/>
  <line x1="352.73" y1="42.06" x2="352.73" y2="602.26" fill="none" stroke="#052962" stroke-miterlimit="10" stroke-width=".15"/>
  <line x1="464.44" y1="42.84" x2="464.44" y2="603.04" fill="none" stroke="#052962" stroke-miterlimit="10" stroke-width=".15"/>
  <line x1="575.95" y1="41.68" x2="575.95" y2="601.88" fill="none" stroke="#052962" stroke-miterlimit="10" stroke-width=".15"/>
  <line x1="687.85" y1="39.34" x2="687.85" y2="599.54" fill="none" stroke="#052962" stroke-miterlimit="10" stroke-width=".15"/>
  <g>
    <path d="M206.67,261.71v-.79l4.52-4.42c.41-.4.72-.76.93-1.06.21-.3.35-.59.42-.86.07-.27.11-.52.11-.76,0-.63-.21-1.13-.64-1.49-.43-.36-1.06-.54-1.9-.54-.64,0-1.21.1-1.7.29s-.91.5-1.26.92l-.79-.68c.42-.5.97-.88,1.63-1.15.66-.27,1.4-.4,2.22-.4.73,0,1.37.12,1.91.35.54.23.95.57,1.25,1.02.29.45.44.97.44,1.57,0,.35-.05.7-.15,1.04-.1.34-.27.7-.53,1.08-.25.38-.62.8-1.11,1.28l-4.14,4.07-.31-.43h6.73v.99h-7.62Z" fill="#b0c1c9" stroke-width="0"/>
    <path d="M220.01,261.8c-.84,0-1.58-.22-2.23-.66s-1.16-1.07-1.54-1.89c-.37-.82-.56-1.81-.56-2.97s.19-2.15.56-2.97.88-1.45,1.54-1.89c.65-.44,1.4-.66,2.23-.66s1.58.22,2.23.66c.65.44,1.17,1.07,1.54,1.89.38.82.57,1.81.57,2.97s-.19,2.15-.57,2.97c-.38.82-.89,1.45-1.54,1.89-.65.44-1.4.66-2.23.66ZM220.01,260.78c.64,0,1.2-.17,1.68-.52s.85-.85,1.12-1.52c.27-.67.4-1.49.4-2.46s-.13-1.79-.4-2.46c-.27-.67-.64-1.17-1.12-1.52s-1.03-.52-1.68-.52-1.17.17-1.66.52-.86.85-1.13,1.52c-.27.67-.4,1.49-.4,2.46s.13,1.79.4,2.46.65,1.17,1.13,1.52,1.04.52,1.66.52Z" fill="#b0c1c9" stroke-width="0"/>
    <path d="M225.76,261.71v-.79l4.52-4.42c.41-.4.72-.76.93-1.06.21-.3.35-.59.42-.86.07-.27.11-.52.11-.76,0-.63-.21-1.13-.64-1.49-.43-.36-1.06-.54-1.9-.54-.64,0-1.21.1-1.7.29s-.91.5-1.26.92l-.79-.68c.42-.5.97-.88,1.63-1.15.66-.27,1.4-.4,2.22-.4.73,0,1.37.12,1.91.35.54.23.95.57,1.25,1.02.29.45.44.97.44,1.57,0,.35-.05.7-.15,1.04-.1.34-.27.7-.53,1.08-.25.38-.62.8-1.11,1.28l-4.14,4.07-.31-.43h6.73v.99h-7.62Z" fill="#b0c1c9" stroke-width="0"/>
    <path d="M234.59,258.86v-.81l5.76-7.2h1.24l-5.71,7.2-.6-.19h8.74v.99h-9.42ZM240.72,261.71v-2.86l.03-.99v-2.51h1.09v6.36h-1.12Z" fill="#b0c1c9" stroke-width="0"/>
  </g>
  <g>
    <path d="M206.67,344.44v-.79l4.52-4.42c.41-.4.72-.76.93-1.06.21-.3.35-.59.42-.86.07-.27.11-.52.11-.76,0-.63-.21-1.13-.64-1.49-.43-.36-1.06-.54-1.9-.54-.64,0-1.21.1-1.7.29s-.91.5-1.26.92l-.79-.68c.42-.5.97-.88,1.63-1.15.66-.27,1.4-.4,2.22-.4.73,0,1.37.12,1.91.35.54.23.95.57,1.25,1.02.29.45.44.97.44,1.57,0,.35-.05.7-.15,1.04-.1.34-.27.7-.53,1.08-.25.38-.62.8-1.11,1.28l-4.14,4.07-.31-.43h6.73v.99h-7.62Z" fill="#b0c1c9" stroke-width="0"/>
    <path d="M220.01,344.53c-.84,0-1.58-.22-2.23-.66s-1.16-1.07-1.54-1.89c-.37-.82-.56-1.81-.56-2.97s.19-2.15.56-2.97.88-1.45,1.54-1.89c.65-.44,1.4-.66,2.23-.66s1.58.22,2.23.66c.65.44,1.17,1.07,1.54,1.89.38.82.57,1.81.57,2.97s-.19,2.15-.57,2.97c-.38.82-.89,1.45-1.54,1.89-.65.44-1.4.66-2.23.66ZM220.01,343.51c.64,0,1.2-.17,1.68-.52s.85-.85,1.12-1.52c.27-.67.4-1.49.4-2.46s-.13-1.79-.4-2.46c-.27-.67-.64-1.17-1.12-1.52s-1.03-.52-1.68-.52-1.17.17-1.66.52-.86.85-1.13,1.52c-.27.67-.4,1.49-.4,2.46s.13,1.79.4,2.46.65,1.17,1.13,1.52,1.04.52,1.66.52Z" fill="#b0c1c9" stroke-width="0"/>
    <path d="M225.76,344.44v-.79l4.52-4.42c.41-.4.72-.76.93-1.06.21-.3.35-.59.42-.86.07-.27.11-.52.11-.76,0-.63-.21-1.13-.64-1.49-.43-.36-1.06-.54-1.9-.54-.64,0-1.21.1-1.7.29s-.91.5-1.26.92l-.79-.68c.42-.5.97-.88,1.63-1.15.66-.27,1.4-.4,2.22-.4.73,0,1.37.12,1.91.35.54.23.95.57,1.25,1.02.29.45.44.97.44,1.57,0,.35-.05.7-.15,1.04-.1.34-.27.7-.53,1.08-.25.38-.62.8-1.11,1.28l-4.14,4.07-.31-.43h6.73v.99h-7.62Z" fill="#b0c1c9" stroke-width="0"/>
    <path d="M238.02,344.53c-.79,0-1.53-.13-2.23-.38-.7-.25-1.26-.59-1.68-1.02l.54-.88c.35.36.83.66,1.42.9.6.24,1.24.36,1.95.36.9,0,1.59-.2,2.07-.59.48-.39.72-.92.72-1.58s-.24-1.19-.71-1.58c-.47-.39-1.21-.59-2.23-.59h-.78v-.82l3.35-4.21.16.43h-6.05v-.99h6.98v.79l-3.35,4.21-.54-.36h.42c1.3,0,2.28.29,2.93.87.65.58.97,1.32.97,2.23,0,.61-.15,1.16-.43,1.64-.29.49-.73.87-1.31,1.15s-1.32.42-2.2.42Z" fill="#b0c1c9" stroke-width="0"/>
  </g>
  <g>
    <path d="M206.67,435.98v-.79l4.52-4.42c.41-.4.72-.76.93-1.06.21-.3.35-.59.42-.86.07-.27.11-.52.11-.76,0-.63-.21-1.13-.64-1.49-.43-.36-1.06-.54-1.9-.54-.64,0-1.21.1-1.7.29s-.91.5-1.26.92l-.79-.68c.42-.5.97-.88,1.63-1.15.66-.27,1.4-.4,2.22-.4.73,0,1.37.12,1.91.35.54.23.95.57,1.25,1.02.29.45.44.97.44,1.57,0,.35-.05.7-.15,1.04-.1.34-.27.7-.53,1.08-.25.38-.62.8-1.11,1.28l-4.14,4.07-.31-.43h6.73v.99h-7.62Z" fill="#b0c1c9" stroke-width="0"/>
    <path d="M220.01,436.07c-.84,0-1.58-.22-2.23-.66s-1.16-1.07-1.54-1.89c-.37-.82-.56-1.81-.56-2.97s.19-2.15.56-2.97.88-1.45,1.54-1.89c.65-.44,1.4-.66,2.23-.66s1.58.22,2.23.66c.65.44,1.17,1.07,1.54,1.89.38.82.57,1.81.57,2.97s-.19,2.15-.57,2.97c-.38.82-.89,1.45-1.54,1.89-.65.44-1.4.66-2.23.66ZM220.01,435.04c.64,0,1.2-.17,1.68-.52s.85-.85,1.12-1.52c.27-.67.4-1.49.4-2.46s-.13-1.79-.4-2.46c-.27-.67-.64-1.17-1.12-1.52s-1.03-.52-1.68-.52-1.17.17-1.66.52-.86.85-1.13,1.52c-.27.67-.4,1.49-.4,2.46s.13,1.79.4,2.46.65,1.17,1.13,1.52,1.04.52,1.66.52Z" fill="#b0c1c9" stroke-width="0"/>
    <path d="M225.76,435.98v-.79l4.52-4.42c.41-.4.72-.76.93-1.06.21-.3.35-.59.42-.86.07-.27.11-.52.11-.76,0-.63-.21-1.13-.64-1.49-.43-.36-1.06-.54-1.9-.54-.64,0-1.21.1-1.7.29s-.91.5-1.26.92l-.79-.68c.42-.5.97-.88,1.63-1.15.66-.27,1.4-.4,2.22-.4.73,0,1.37.12,1.91.35.54.23.95.57,1.25,1.02.29.45.44.97.44,1.57,0,.35-.05.7-.15,1.04-.1.34-.27.7-.53,1.08-.25.38-.62.8-1.11,1.28l-4.14,4.07-.31-.43h6.73v.99h-7.62Z" fill="#b0c1c9" stroke-width="0"/>
    <path d="M234.57,435.98v-.79l4.52-4.42c.41-.4.72-.76.93-1.06.21-.3.35-.59.42-.86.07-.27.11-.52.11-.76,0-.63-.21-1.13-.64-1.49-.43-.36-1.06-.54-1.9-.54-.64,0-1.21.1-1.7.29s-.91.5-1.26.92l-.79-.68c.42-.5.97-.88,1.63-1.15.66-.27,1.4-.4,2.22-.4.73,0,1.37.12,1.91.35.54.23.95.57,1.25,1.02.29.45.44.97.44,1.57,0,.35-.05.7-.15,1.04-.1.34-.27.7-.53,1.08-.25.38-.62.8-1.11,1.28l-4.14,4.07-.31-.43h6.73v.99h-7.62Z" fill="#b0c1c9" stroke-width="0"/>
  </g>
  <line x1="296.41" y1="38.05" x2="296.41" y2="598.24" fill="none" stroke="#052962" stroke-miterlimit="10" stroke-width="2"/>
  <path id="LEG_VE" d="M998.34,333.33h-51.01v18.76h51.01c5.16,0,9.38-4.22,9.38-9.38s-4.22-9.38-9.38-9.38Z" fill="#052962" stroke-width="0"/>
  <path d="M299.48,7.84c0,3.43-1.27,5.32-3.51,5.32-1.97,0-3.31-1.85-3.34-5.18,0-3.38,1.46-5.25,3.51-5.25s3.34,1.89,3.34,5.11ZM294,7.99c0,2.62.81,4.11,2.05,4.11,1.4,0,2.06-1.63,2.06-4.21s-.64-4.11-2.05-4.11c-1.19,0-2.06,1.46-2.06,4.21Z" fill="#b0c1c9" stroke-width="0"/>
  <g>
    <path d="M735.09,4.17h-.03l-1.75.95-.26-1.04,2.2-1.18h1.16v10.09h-1.32V4.17Z" fill="#b0c1c9" stroke-width="0"/>
    <path d="M746.79,7.84c0,3.43-1.27,5.32-3.51,5.32-1.97,0-3.31-1.85-3.34-5.18,0-3.38,1.46-5.25,3.51-5.25s3.34,1.89,3.34,5.11ZM741.31,7.99c0,2.62.81,4.11,2.05,4.11,1.4,0,2.06-1.63,2.06-4.21s-.64-4.11-2.05-4.11c-1.2,0-2.06,1.46-2.06,4.21Z" fill="#b0c1c9" stroke-width="0"/>
    <path d="M754.75,7.84c0,3.43-1.27,5.32-3.51,5.32-1.97,0-3.31-1.85-3.34-5.18,0-3.38,1.46-5.25,3.51-5.25s3.34,1.89,3.34,5.11ZM749.27,7.99c0,2.62.81,4.11,2.05,4.11,1.4,0,2.06-1.63,2.06-4.21s-.64-4.11-2.05-4.11c-1.2,0-2.06,1.46-2.06,4.21Z" fill="#b0c1c9" stroke-width="0"/>
  </g>
  <g>
    <path d="M522.76,5.43h-3.85l-.39,2.59c.23-.03.45-.06.82-.06.78,0,1.55.17,2.17.54.79.45,1.44,1.32,1.44,2.59,0,1.97-1.57,3.45-3.76,3.45-1.1,0-2.03-.31-2.51-.62l.34-1.04c.42.25,1.24.56,2.16.56,1.29,0,2.39-.84,2.39-2.19-.02-1.3-.88-2.23-2.9-2.23-.57,0-1.02.06-1.4.11l.65-4.84h4.83v1.15Z" fill="#b0c1c9" stroke-width="0"/>
    <path d="M531.41,9.22c0,3.43-1.27,5.32-3.51,5.32-1.97,0-3.31-1.85-3.34-5.18,0-3.38,1.46-5.25,3.51-5.25s3.34,1.89,3.34,5.11ZM525.93,9.37c0,2.62.81,4.11,2.05,4.11,1.4,0,2.06-1.63,2.06-4.21s-.64-4.11-2.05-4.11c-1.19,0-2.06,1.46-2.06,4.21Z" fill="#b0c1c9" stroke-width="0"/>
  </g>
  <g>
    <path d="M402.84,14.37v-.84l1.07-1.04c2.58-2.45,3.74-3.76,3.76-5.28,0-1.02-.5-1.97-2-1.97-.92,0-1.68.47-2.14.85l-.43-.96c.7-.59,1.69-1.02,2.85-1.02,2.17,0,3.09,1.49,3.09,2.93,0,1.86-1.35,3.37-3.48,5.42l-.81.74v.03h4.53v1.13h-6.44Z" fill="#b0c1c9" stroke-width="0"/>
    <path d="M416.82,5.43h-3.85l-.39,2.59c.23-.03.45-.06.82-.06.78,0,1.55.17,2.17.54.79.45,1.44,1.32,1.44,2.59,0,1.97-1.57,3.45-3.76,3.45-1.1,0-2.03-.31-2.51-.62l.34-1.04c.42.25,1.24.56,2.16.56,1.29,0,2.39-.84,2.39-2.19-.02-1.3-.88-2.23-2.9-2.23-.57,0-1.02.06-1.4.11l.65-4.84h4.83v1.15Z" fill="#b0c1c9" stroke-width="0"/>
  </g>
  <g>
    <path d="M640.13,4.28v.9l-4.39,9.19h-1.41l4.38-8.92v-.03h-4.93v-1.13h6.36Z" fill="#b0c1c9" stroke-width="0"/>
    <path d="M647.56,5.43h-3.85l-.39,2.59c.23-.03.45-.06.82-.06.78,0,1.55.17,2.17.54.79.45,1.44,1.32,1.44,2.59,0,1.97-1.57,3.45-3.75,3.45-1.1,0-2.03-.31-2.51-.62l.34-1.04c.42.25,1.24.56,2.16.56,1.29,0,2.39-.84,2.39-2.19-.02-1.3-.88-2.23-2.9-2.23-.57,0-1.02.06-1.4.11l.65-4.84h4.83v1.15Z" fill="#b0c1c9" stroke-width="0"/>
  </g>
  <g>
    <path d="M843.69,318.66c0,1.78-.94,2.67-2.03,2.67s-1.96-.84-1.98-2.55c0-1.69.92-2.64,2.04-2.64,1.18,0,1.96.91,1.96,2.52ZM840.6,318.74c-.03,1.08.38,1.9,1.09,1.9.75,0,1.09-.81,1.09-1.92,0-1.03-.3-1.88-1.09-1.88-.72,0-1.09.84-1.09,1.91ZM841.59,324.88l4.97-8.74h.73l-4.97,8.74h-.73ZM849.19,322.16c0,1.78-.94,2.67-2.02,2.67s-1.96-.84-1.98-2.54c0-1.7.92-2.65,2.04-2.65,1.18,0,1.95.91,1.95,2.52ZM846.1,322.24c-.01,1.08.4,1.9,1.11,1.9.75,0,1.09-.81,1.09-1.92,0-1.03-.3-1.88-1.09-1.88-.71,0-1.11.84-1.11,1.91Z" fill="#b0c1c9" stroke-width="0"/>
    <path d="M854.8,324.73l-2.86-8.76h1.22l1.36,4.32c.38,1.18.7,2.25.94,3.28h.03c.25-1.01.61-2.12,1-3.26l1.48-4.33h1.21l-3.13,8.76h-1.25Z" fill="#b0c1c9" stroke-width="0"/>
    <path d="M865.35,321.54c0,2.33-1.61,3.34-3.13,3.34-1.7,0-3.02-1.25-3.02-3.24,0-2.11,1.38-3.34,3.12-3.34s3.03,1.31,3.03,3.24ZM860.36,321.6c0,1.38.79,2.42,1.91,2.42s1.91-1.03,1.91-2.44c0-1.07-.53-2.42-1.89-2.42s-1.94,1.25-1.94,2.44Z" fill="#b0c1c9" stroke-width="0"/>
    <path d="M868.07,316.67c.01.39-.27.7-.73.7-.4,0-.69-.31-.69-.7s.3-.71.72-.71.7.31.7.71ZM866.79,324.73v-6.29h1.14v6.29h-1.14Z" fill="#b0c1c9" stroke-width="0"/>
    <path d="M871.21,316.63v1.81h1.64v.87h-1.64v3.39c0,.78.22,1.22.86,1.22.3,0,.52-.04.66-.08l.05.86c-.22.09-.57.16-1.01.16-.53,0-.96-.17-1.23-.48-.33-.34-.44-.9-.44-1.64v-3.43h-.97v-.87h.97v-1.51l1.12-.3Z" fill="#b0c1c9" stroke-width="0"/>
    <path d="M879.4,323.02c0,.65.01,1.22.05,1.72h-1.01l-.06-1.03h-.03c-.3.51-.96,1.17-2.08,1.17-.99,0-2.17-.55-2.17-2.76v-3.68h1.14v3.48c0,1.2.36,2,1.4,2,.77,0,1.3-.53,1.51-1.04.07-.17.1-.38.1-.58v-3.86h1.14v4.58Z" fill="#b0c1c9" stroke-width="0"/>
    <path d="M881.3,320.4c0-.74-.01-1.38-.05-1.96h1l.04,1.23h.05c.29-.84.97-1.38,1.74-1.38.13,0,.22.01.32.04v1.08c-.12-.03-.23-.04-.39-.04-.81,0-1.38.61-1.53,1.47-.03.16-.05.34-.05.53v3.35h-1.13v-4.33Z" fill="#b0c1c9" stroke-width="0"/>
    <path d="M886.06,321.79c.03,1.55,1.01,2.18,2.16,2.18.82,0,1.31-.14,1.74-.33l.2.82c-.4.18-1.09.39-2.09.39-1.94,0-3.09-1.27-3.09-3.17s1.12-3.39,2.95-3.39c2.05,0,2.6,1.81,2.6,2.96,0,.23-.03.42-.04.53h-4.42ZM889.41,320.98c.01-.73-.3-1.86-1.59-1.86-1.16,0-1.66,1.07-1.76,1.86h3.34Z" fill="#b0c1c9" stroke-width="0"/>
    <path d="M891.78,323.56c.34.22.94.46,1.51.46.83,0,1.22-.42,1.22-.94s-.33-.84-1.17-1.16c-1.13-.4-1.66-1.03-1.66-1.78,0-1.01.82-1.85,2.17-1.85.64,0,1.2.18,1.55.39l-.29.83c-.25-.16-.7-.36-1.29-.36-.68,0-1.05.39-1.05.86,0,.52.38.75,1.2,1.07,1.09.42,1.65.96,1.65,1.9,0,1.1-.86,1.88-2.35,1.88-.69,0-1.33-.17-1.77-.43l.29-.87Z" fill="#b0c1c9" stroke-width="0"/>
    <path d="M901.22,316.63v1.81h1.64v.87h-1.64v3.39c0,.78.22,1.22.86,1.22.3,0,.52-.04.66-.08l.05.86c-.22.09-.57.16-1.01.16-.53,0-.96-.17-1.23-.48-.33-.34-.44-.9-.44-1.64v-3.43h-.97v-.87h.97v-1.51l1.12-.3Z" fill="#b0c1c9" stroke-width="0"/>
    <path d="M909.76,321.54c0,2.33-1.61,3.34-3.13,3.34-1.7,0-3.02-1.25-3.02-3.24,0-2.11,1.38-3.34,3.12-3.34s3.03,1.31,3.03,3.24ZM904.77,321.6c0,1.38.79,2.42,1.91,2.42s1.91-1.03,1.91-2.44c0-1.07-.53-2.42-1.89-2.42s-1.94,1.25-1.94,2.44Z" fill="#b0c1c9" stroke-width="0"/>
    <path d="M912.58,316.63v1.81h1.64v.87h-1.64v3.39c0,.78.22,1.22.86,1.22.3,0,.52-.04.66-.08l.05.86c-.22.09-.57.16-1.01.16-.53,0-.96-.17-1.23-.48-.33-.34-.44-.9-.44-1.64v-3.43h-.97v-.87h.97v-1.51l1.12-.3Z" fill="#b0c1c9" stroke-width="0"/>
    <path d="M918.99,324.73l-.09-.79h-.04c-.35.49-1.03.94-1.92.94-1.27,0-1.92-.9-1.92-1.81,0-1.52,1.35-2.35,3.78-2.34v-.13c0-.52-.14-1.46-1.43-1.46-.58,0-1.2.18-1.64.47l-.26-.75c.52-.34,1.27-.56,2.07-.56,1.92,0,2.39,1.31,2.39,2.57v2.35c0,.55.03,1.08.1,1.51h-1.04ZM918.82,321.52c-1.25-.03-2.67.19-2.67,1.42,0,.74.49,1.09,1.08,1.09.82,0,1.34-.52,1.52-1.05.04-.12.07-.25.07-.36v-1.09Z" fill="#b0c1c9" stroke-width="0"/>
    <path d="M921.77,315.5h1.14v9.23h-1.14v-9.23Z" fill="#b0c1c9" stroke-width="0"/>
    <path d="M925.47,321.79c.03,1.55,1.01,2.18,2.16,2.18.82,0,1.31-.14,1.74-.33l.2.82c-.4.18-1.09.39-2.09.39-1.94,0-3.09-1.27-3.09-3.17s1.12-3.39,2.95-3.39c2.05,0,2.6,1.81,2.6,2.96,0,.23-.03.42-.04.53h-4.42ZM928.83,320.98c.01-.73-.3-1.86-1.59-1.86-1.16,0-1.66,1.07-1.76,1.86h3.34Z" fill="#b0c1c9" stroke-width="0"/>
    <path d="M931.19,323.56c.34.22.94.46,1.51.46.83,0,1.22-.42,1.22-.94s-.33-.84-1.17-1.16c-1.13-.4-1.66-1.03-1.66-1.78,0-1.01.82-1.85,2.17-1.85.64,0,1.2.18,1.55.39l-.29.83c-.25-.16-.7-.36-1.29-.36-.68,0-1.05.39-1.05.86,0,.52.38.75,1.2,1.07,1.09.42,1.65.96,1.65,1.9,0,1.1-.86,1.88-2.35,1.88-.69,0-1.33-.17-1.77-.43l.29-.87Z" fill="#b0c1c9" stroke-width="0"/>
  </g>
  <g>
    <path d="M820.48,342.66c0,1.78-.94,2.67-2.03,2.67s-1.96-.84-1.98-2.55c0-1.69.92-2.64,2.04-2.64,1.18,0,1.96.91,1.96,2.52ZM817.38,342.74c-.03,1.08.38,1.9,1.09,1.9.75,0,1.09-.81,1.09-1.92,0-1.03-.3-1.88-1.09-1.88-.71,0-1.09.84-1.09,1.91ZM818.37,348.88l4.97-8.74h.73l-4.97,8.74h-.73ZM825.98,346.16c0,1.78-.94,2.67-2.02,2.67s-1.96-.84-1.98-2.54c0-1.7.92-2.65,2.04-2.65,1.18,0,1.95.91,1.95,2.52ZM822.88,346.24c-.01,1.08.4,1.9,1.11,1.9.75,0,1.09-.81,1.09-1.92,0-1.03-.3-1.88-1.09-1.88-.71,0-1.11.84-1.11,1.91Z" fill="#b0c1c9" stroke-width="0"/>
    <path d="M831.58,348.73l-2.86-8.76h1.22l1.36,4.32c.38,1.18.7,2.25.94,3.28h.03c.25-1.01.61-2.12,1-3.26l1.48-4.33h1.21l-3.13,8.76h-1.25Z" fill="#b0c1c9" stroke-width="0"/>
    <path d="M842.14,345.53c0,2.33-1.61,3.34-3.13,3.34-1.7,0-3.02-1.25-3.02-3.24,0-2.11,1.38-3.34,3.12-3.34s3.03,1.31,3.03,3.24ZM837.14,345.6c0,1.38.79,2.42,1.91,2.42s1.91-1.03,1.91-2.44c0-1.07-.53-2.42-1.89-2.42s-1.94,1.25-1.94,2.44Z" fill="#b0c1c9" stroke-width="0"/>
    <path d="M844.85,340.67c.01.39-.27.7-.73.7-.4,0-.69-.31-.69-.7s.3-.71.72-.71.7.31.7.71ZM843.58,348.73v-6.29h1.14v6.29h-1.14Z" fill="#b0c1c9" stroke-width="0"/>
    <path d="M848,340.63v1.81h1.64v.87h-1.64v3.39c0,.78.22,1.22.86,1.22.3,0,.52-.04.66-.08l.05.86c-.22.09-.57.16-1.01.16-.53,0-.96-.17-1.23-.48-.33-.34-.44-.9-.44-1.64v-3.43h-.97v-.87h.97v-1.51l1.12-.3Z" fill="#b0c1c9" stroke-width="0"/>
    <path d="M856.19,347.02c0,.65.01,1.22.05,1.72h-1.01l-.06-1.03h-.03c-.3.51-.96,1.17-2.08,1.17-.99,0-2.17-.55-2.17-2.76v-3.68h1.14v3.48c0,1.2.36,2,1.4,2,.77,0,1.3-.53,1.51-1.04.07-.17.1-.38.1-.58v-3.86h1.14v4.58Z" fill="#b0c1c9" stroke-width="0"/>
    <path d="M858.09,344.4c0-.74-.01-1.38-.05-1.96h1l.04,1.23h.05c.29-.84.97-1.38,1.74-1.38.13,0,.22.01.33.04v1.08c-.12-.03-.23-.04-.39-.04-.81,0-1.38.61-1.53,1.47-.03.16-.05.34-.05.53v3.35h-1.13v-4.33Z" fill="#b0c1c9" stroke-width="0"/>
    <path d="M862.84,345.79c.03,1.55,1.01,2.18,2.16,2.18.82,0,1.31-.14,1.74-.33l.2.82c-.4.18-1.09.39-2.09.39-1.94,0-3.09-1.27-3.09-3.17s1.12-3.39,2.95-3.39c2.05,0,2.6,1.81,2.6,2.96,0,.23-.03.42-.04.53h-4.42ZM866.2,344.98c.01-.73-.3-1.86-1.59-1.86-1.16,0-1.66,1.07-1.76,1.86h3.34Z" fill="#b0c1c9" stroke-width="0"/>
    <path d="M868.56,347.56c.34.22.94.46,1.51.46.83,0,1.22-.42,1.22-.94s-.33-.84-1.17-1.16c-1.13-.4-1.66-1.03-1.66-1.78,0-1.01.82-1.85,2.17-1.85.64,0,1.2.18,1.55.39l-.29.83c-.25-.16-.7-.36-1.29-.36-.68,0-1.05.39-1.05.86,0,.52.38.75,1.2,1.07,1.09.42,1.65.96,1.65,1.9,0,1.1-.86,1.88-2.35,1.88-.69,0-1.33-.17-1.77-.43l.29-.87Z" fill="#b0c1c9" stroke-width="0"/>
    <path d="M877.26,345.79c.03,1.55,1.01,2.18,2.16,2.18.82,0,1.31-.14,1.74-.33l.2.82c-.4.18-1.09.39-2.09.39-1.94,0-3.09-1.27-3.09-3.17s1.12-3.39,2.95-3.39c2.05,0,2.6,1.81,2.6,2.96,0,.23-.03.42-.04.53h-4.42ZM880.62,344.98c.01-.73-.3-1.86-1.59-1.86-1.16,0-1.66,1.07-1.76,1.86h3.34ZM880.89,339.72l-1.59,1.86h-.82l1.14-1.86h1.26Z" fill="#b0c1c9" stroke-width="0"/>
    <path d="M883.14,339.5h1.14v9.23h-1.14v-9.23Z" fill="#b0c1c9" stroke-width="0"/>
    <path d="M886.84,345.79c.03,1.55,1.01,2.18,2.16,2.18.82,0,1.31-.14,1.74-.33l.2.82c-.4.18-1.09.39-2.09.39-1.94,0-3.09-1.27-3.09-3.17s1.12-3.39,2.95-3.39c2.05,0,2.6,1.81,2.6,2.96,0,.23-.03.42-.04.53h-4.42ZM890.2,344.98c.01-.73-.3-1.86-1.59-1.86-1.16,0-1.66,1.07-1.76,1.86h3.34Z" fill="#b0c1c9" stroke-width="0"/>
    <path d="M897.2,348.5c-.3.16-.96.36-1.81.36-1.9,0-3.13-1.29-3.13-3.21s1.33-3.34,3.38-3.34c.68,0,1.27.17,1.59.32l-.26.88c-.27-.16-.7-.3-1.33-.3-1.44,0-2.22,1.07-2.22,2.38,0,1.46.94,2.35,2.18,2.35.65,0,1.08-.17,1.4-.31l.2.86Z" fill="#b0c1c9" stroke-width="0"/>
    <path d="M900.09,340.63v1.81h1.64v.87h-1.64v3.39c0,.78.22,1.22.86,1.22.3,0,.52-.04.66-.08l.05.86c-.22.09-.57.16-1.01.16-.53,0-.96-.17-1.23-.48-.33-.34-.44-.9-.44-1.64v-3.43h-.97v-.87h.97v-1.51l1.12-.3Z" fill="#b0c1c9" stroke-width="0"/>
    <path d="M903.01,344.4c0-.74-.01-1.38-.05-1.96h1l.04,1.23h.05c.29-.84.97-1.38,1.74-1.38.13,0,.22.01.32.04v1.08c-.12-.03-.23-.04-.39-.04-.81,0-1.38.61-1.53,1.47-.03.16-.05.34-.05.53v3.35h-1.13v-4.33Z" fill="#b0c1c9" stroke-width="0"/>
    <path d="M908.59,340.67c.01.39-.27.7-.73.7-.4,0-.69-.31-.69-.7s.3-.71.72-.71.7.31.7.71ZM907.32,348.73v-6.29h1.14v6.29h-1.14Z" fill="#b0c1c9" stroke-width="0"/>
    <path d="M914.65,347.76h-.03c-.34.62-1.04,1.12-2.05,1.12-1.47,0-2.67-1.27-2.67-3.18,0-2.35,1.52-3.39,2.85-3.39.98,0,1.62.48,1.94,1.09h.03l.04-.95h1.08c-.03.53-.04,1.08-.04,1.73v7.14h-1.14v-3.55ZM914.65,344.99c0-.16-.01-.34-.05-.48-.17-.7-.78-1.3-1.64-1.3-1.18,0-1.9,1-1.9,2.42,0,1.25.6,2.34,1.86,2.34.74,0,1.38-.46,1.64-1.25.05-.16.09-.38.09-.55v-1.18Z" fill="#b0c1c9" stroke-width="0"/>
    <path d="M922.94,347.02c0,.65.01,1.22.05,1.72h-1.01l-.06-1.03h-.03c-.3.51-.96,1.17-2.08,1.17-.99,0-2.17-.55-2.17-2.76v-3.68h1.14v3.48c0,1.2.36,2,1.4,2,.77,0,1.3-.53,1.51-1.04.07-.17.1-.38.1-.58v-3.86h1.14v4.58Z" fill="#b0c1c9" stroke-width="0"/>
    <path d="M925.48,345.79c.03,1.55,1.01,2.18,2.16,2.18.82,0,1.31-.14,1.74-.33l.2.82c-.4.18-1.09.39-2.09.39-1.94,0-3.09-1.27-3.09-3.17s1.12-3.39,2.95-3.39c2.05,0,2.6,1.81,2.6,2.96,0,.23-.03.42-.04.53h-4.42ZM928.83,344.98c.01-.73-.3-1.86-1.59-1.86-1.16,0-1.66,1.07-1.76,1.86h3.34Z" fill="#b0c1c9" stroke-width="0"/>
    <path d="M931.2,347.56c.34.22.94.46,1.51.46.83,0,1.22-.42,1.22-.94s-.33-.84-1.17-1.16c-1.13-.4-1.66-1.03-1.66-1.78,0-1.01.82-1.85,2.17-1.85.64,0,1.2.18,1.55.39l-.29.83c-.25-.16-.7-.36-1.29-.36-.68,0-1.05.39-1.05.86,0,.52.38.75,1.2,1.07,1.09.42,1.65.96,1.65,1.9,0,1.1-.86,1.88-2.35,1.88-.69,0-1.33-.17-1.77-.43l.29-.87Z" fill="#b0c1c9" stroke-width="0"/>
  </g>
  <g id="LEG_VT">
    <g clip-path="url(#clippath-3)">
      <line x1="1017.35" y1="221.4" x2="801.12" y2="413.54" fill="none" stroke="#95b2c0" stroke-miterlimit="10"/>
      <line x1="1020.85" y1="221.4" x2="804.62" y2="413.54" fill="none" stroke="#95b2c0" stroke-miterlimit="10"/>
      <line x1="1024.34" y1="221.4" x2="808.12" y2="413.54" fill="none" stroke="#95b2c0" stroke-miterlimit="10"/>
      <line x1="1027.84" y1="221.4" x2="811.61" y2="413.54" fill="none" stroke="#95b2c0" stroke-miterlimit="10"/>
      <line x1="1031.34" y1="221.4" x2="815.11" y2="413.54" fill="none" stroke="#95b2c0" stroke-miterlimit="10"/>
      <line x1="1034.83" y1="221.4" x2="818.6" y2="413.54" fill="none" stroke="#95b2c0" stroke-miterlimit="10"/>
      <line x1="1038.33" y1="221.4" x2="822.1" y2="413.54" fill="none" stroke="#95b2c0" stroke-miterlimit="10"/>
      <line x1="1041.82" y1="221.4" x2="825.6" y2="413.54" fill="none" stroke="#95b2c0" stroke-miterlimit="10"/>
      <line x1="1045.32" y1="221.4" x2="829.09" y2="413.54" fill="none" stroke="#95b2c0" stroke-miterlimit="10"/>
      <line x1="1048.82" y1="221.4" x2="832.59" y2="413.54" fill="none" stroke="#95b2c0" stroke-miterlimit="10"/>
      <line x1="1052.31" y1="221.4" x2="836.09" y2="413.54" fill="none" stroke="#95b2c0" stroke-miterlimit="10"/>
      <line x1="1055.81" y1="221.4" x2="839.58" y2="413.54" fill="none" stroke="#95b2c0" stroke-miterlimit="10"/>
      <line x1="1059.31" y1="221.4" x2="843.08" y2="413.54" fill="none" stroke="#95b2c0" stroke-miterlimit="10"/>
      <line x1="1062.8" y1="221.4" x2="846.57" y2="413.54" fill="none" stroke="#95b2c0" stroke-miterlimit="10"/>
      <line x1="1066.3" y1="221.4" x2="850.07" y2="413.54" fill="none" stroke="#95b2c0" stroke-miterlimit="10"/>
      <line x1="1069.79" y1="221.4" x2="853.57" y2="413.54" fill="none" stroke="#95b2c0" stroke-miterlimit="10"/>
      <line x1="1073.29" y1="221.4" x2="857.06" y2="413.54" fill="none" stroke="#95b2c0" stroke-miterlimit="10"/>
      <line x1="1076.79" y1="221.4" x2="860.56" y2="413.54" fill="none" stroke="#95b2c0" stroke-miterlimit="10"/>
      <line x1="1080.28" y1="221.4" x2="864.06" y2="413.54" fill="none" stroke="#95b2c0" stroke-miterlimit="10"/>
      <line x1="1083.78" y1="221.4" x2="867.55" y2="413.54" fill="none" stroke="#95b2c0" stroke-miterlimit="10"/>
      <line x1="1087.28" y1="221.4" x2="871.05" y2="413.54" fill="none" stroke="#95b2c0" stroke-miterlimit="10"/>
      <line x1="1090.77" y1="221.4" x2="874.55" y2="413.54" fill="none" stroke="#95b2c0" stroke-miterlimit="10"/>
      <line x1="1094.27" y1="221.4" x2="878.04" y2="413.54" fill="none" stroke="#95b2c0" stroke-miterlimit="10"/>
      <line x1="1097.76" y1="221.4" x2="881.54" y2="413.54" fill="none" stroke="#95b2c0" stroke-miterlimit="10"/>
      <line x1="1101.26" y1="221.4" x2="885.03" y2="413.54" fill="none" stroke="#95b2c0" stroke-miterlimit="10"/>
      <line x1="1104.76" y1="221.4" x2="888.53" y2="413.54" fill="none" stroke="#95b2c0" stroke-miterlimit="10"/>
      <line x1="1108.25" y1="221.4" x2="892.03" y2="413.54" fill="none" stroke="#95b2c0" stroke-miterlimit="10"/>
      <line x1="1111.75" y1="221.4" x2="895.52" y2="413.54" fill="none" stroke="#95b2c0" stroke-miterlimit="10"/>
      <line x1="1115.25" y1="221.4" x2="899.02" y2="413.54" fill="none" stroke="#95b2c0" stroke-miterlimit="10"/>
      <line x1="1118.74" y1="221.4" x2="902.52" y2="413.54" fill="none" stroke="#95b2c0" stroke-miterlimit="10"/>
      <line x1="1122.24" y1="221.4" x2="906.01" y2="413.54" fill="none" stroke="#95b2c0" stroke-miterlimit="10"/>
      <line x1="1125.74" y1="221.4" x2="909.51" y2="413.54" fill="none" stroke="#95b2c0" stroke-miterlimit="10"/>
      <line x1="1129.23" y1="221.4" x2="913" y2="413.54" fill="none" stroke="#95b2c0" stroke-miterlimit="10"/>
      <line x1="1132.73" y1="221.4" x2="916.5" y2="413.54" fill="none" stroke="#95b2c0" stroke-miterlimit="10"/>
      <line x1="1136.22" y1="221.4" x2="920" y2="413.54" fill="none" stroke="#95b2c0" stroke-miterlimit="10"/>
      <line x1="1139.72" y1="221.4" x2="923.49" y2="413.54" fill="none" stroke="#95b2c0" stroke-miterlimit="10"/>
      <line x1="1143.22" y1="221.4" x2="926.99" y2="413.54" fill="none" stroke="#95b2c0" stroke-miterlimit="10"/>
      <line x1="1146.71" y1="221.4" x2="930.49" y2="413.54" fill="none" stroke="#95b2c0" stroke-miterlimit="10"/>
      <line x1="1150.21" y1="221.4" x2="933.98" y2="413.54" fill="none" stroke="#95b2c0" stroke-miterlimit="10"/>
      <line x1="1153.71" y1="221.4" x2="937.48" y2="413.54" fill="none" stroke="#95b2c0" stroke-miterlimit="10"/>
      <line x1="1157.2" y1="221.4" x2="940.97" y2="413.54" fill="none" stroke="#95b2c0" stroke-miterlimit="10"/>
      <line x1="1160.7" y1="221.4" x2="944.47" y2="413.54" fill="none" stroke="#95b2c0" stroke-miterlimit="10"/>
      <line x1="1164.19" y1="221.4" x2="947.97" y2="413.54" fill="none" stroke="#95b2c0" stroke-miterlimit="10"/>
      <line x1="1167.69" y1="221.4" x2="951.46" y2="413.54" fill="none" stroke="#95b2c0" stroke-miterlimit="10"/>
      <line x1="1171.19" y1="221.4" x2="954.96" y2="413.54" fill="none" stroke="#95b2c0" stroke-miterlimit="10"/>
      <line x1="1174.68" y1="221.4" x2="958.46" y2="413.54" fill="none" stroke="#95b2c0" stroke-miterlimit="10"/>
      <line x1="1178.18" y1="221.4" x2="961.95" y2="413.54" fill="none" stroke="#95b2c0" stroke-miterlimit="10"/>
      <line x1="1181.68" y1="221.4" x2="965.45" y2="413.54" fill="none" stroke="#95b2c0" stroke-miterlimit="10"/>
      <line x1="1185.17" y1="221.4" x2="968.94" y2="413.54" fill="none" stroke="#95b2c0" stroke-miterlimit="10"/>
      <rect x="893.79" y="304.04" width="174.64" height="19.95" rx="6.43" ry="6.43" fill="none" stroke-width="0"/>
    </g>
  </g>
  <g>
    <path d="M358.63,308.13v-.68l4.82-6.03h1.04l-4.78,6.03-.51-.16h7.32v.83h-7.89ZM363.77,310.52v-2.39l.03-.83v-2.11h.91v5.33h-.94Z" fill="#fff" stroke-width="0"/>
    <path d="M369.29,306.3c-.4,0-.75-.1-1.07-.31s-.55-.49-.72-.86-.25-.81-.25-1.3.08-.93.25-1.3c.17-.37.41-.66.72-.86s.67-.31,1.07-.31.78.1,1.09.31.55.49.72.86c.17.37.26.8.26,1.31s-.09.93-.26,1.3-.41.66-.72.86-.67.31-1.09.31ZM369.3,305.71c.42,0,.76-.17,1.02-.5.26-.33.38-.79.38-1.38s-.13-1.05-.38-1.38c-.26-.33-.6-.5-1.02-.5s-.78.17-1.03.5c-.25.33-.38.8-.38,1.38s.13,1.05.38,1.38c.25.33.59.5,1.03.5ZM368.6,310.52l6.21-9.1h.77l-6.21,9.1h-.77ZM374.88,310.59c-.4,0-.75-.1-1.07-.31-.31-.2-.55-.49-.73-.86s-.26-.81-.26-1.3.09-.93.26-1.3c.17-.37.42-.66.73-.86s.67-.31,1.07-.31.78.1,1.09.31c.31.2.55.49.71.86.17.37.25.81.25,1.3s-.08.93-.25,1.3-.41.66-.71.86c-.31.2-.67.31-1.09.31ZM374.88,310c.42,0,.77-.17,1.02-.5.26-.33.38-.79.38-1.38s-.13-1.05-.38-1.38c-.26-.33-.6-.5-1.02-.5s-.76.17-1.02.5c-.26.33-.38.8-.38,1.38s.13,1.05.38,1.38c.26.33.6.5,1.02.5Z" fill="#fff" stroke-width="0"/>
  </g>
  <g id="PR3">
    <rect x="346.27" y="401.09" width="44.45" height="25.52" rx="12" ry="12" fill="#052962" opacity=".71" stroke-width="0"/>
    <g>
      <path d="M362.95,417.64c-.66,0-1.28-.11-1.87-.32-.58-.21-1.06-.5-1.41-.85l.45-.74c.29.3.69.55,1.19.75.5.2,1.04.3,1.63.3.75,0,1.33-.17,1.74-.49.4-.33.6-.77.6-1.33s-.2-1-.59-1.33c-.39-.33-1.02-.49-1.87-.49h-.65v-.69l2.81-3.52.13.36h-5.07v-.83h5.85v.66l-2.81,3.52-.46-.3h.35c1.09,0,1.91.24,2.45.73s.81,1.11.81,1.87c0,.51-.12.97-.36,1.38s-.61.73-1.1.96c-.49.23-1.1.35-1.84.35Z" fill="#fff" stroke-width="0"/>
      <path d="M369.48,413.33c-.4,0-.75-.1-1.07-.31-.31-.2-.55-.49-.72-.86-.17-.37-.25-.81-.25-1.3s.08-.93.25-1.3c.17-.37.41-.66.72-.86.31-.2.67-.31,1.07-.31s.78.1,1.09.31c.31.2.55.49.72.86s.26.8.26,1.31-.09.93-.26,1.3c-.17.37-.41.66-.72.86-.31.2-.67.31-1.09.31ZM369.49,412.75c.42,0,.76-.17,1.02-.5.26-.33.38-.79.38-1.38s-.13-1.05-.38-1.38c-.26-.33-.6-.5-1.02-.5s-.78.17-1.03.5c-.25.33-.38.79-.38,1.38s.13,1.05.38,1.38c.25.33.59.5,1.03.5ZM368.79,417.56l6.21-9.1h.77l-6.21,9.1h-.77ZM375.07,417.62c-.4,0-.75-.1-1.07-.31-.31-.2-.55-.49-.73-.86-.17-.37-.26-.81-.26-1.3s.09-.93.26-1.3c.17-.37.42-.66.73-.86.31-.2.67-.31,1.07-.31s.78.1,1.09.31c.31.2.55.49.71.86.17.37.25.81.25,1.3s-.08.93-.25,1.3c-.17.37-.41.66-.71.86-.31.2-.67.31-1.09.31ZM375.07,417.04c.42,0,.77-.17,1.02-.5.26-.33.38-.79.38-1.38s-.13-1.05-.38-1.38c-.26-.33-.6-.5-1.02-.5s-.76.17-1.02.5c-.26.33-.38.79-.38,1.38s.13,1.05.38,1.38c.26.33.6.5,1.02.5Z" fill="#fff" stroke-width="0"/>
    </g>
  </g>
  <g id="PR4">
    <rect x="346.27" y="309.52" width="44.45" height="25.52" rx="12" ry="12" fill="#052962" opacity=".71" stroke-width="0"/>
    <g>
      <path d="M360.11,324.2v-.68l4.82-6.03h1.04l-4.78,6.03-.51-.16h7.32v.83h-7.89ZM365.24,326.59v-2.39l.03-.83v-2.11h.91v5.33h-.94Z" fill="#fff" stroke-width="0"/>
      <path d="M370.77,322.37c-.4,0-.75-.1-1.07-.31s-.55-.49-.72-.86-.25-.81-.25-1.3.08-.93.25-1.3c.17-.37.41-.66.72-.86s.67-.31,1.07-.31.78.1,1.09.31.55.49.72.86c.17.37.26.8.26,1.31s-.09.93-.26,1.3-.41.66-.72.86-.67.31-1.09.31ZM370.78,321.78c.42,0,.76-.17,1.02-.5.26-.33.38-.79.38-1.38s-.13-1.05-.38-1.38c-.26-.33-.6-.5-1.02-.5s-.78.17-1.03.5c-.25.33-.38.8-.38,1.38s.13,1.05.38,1.38c.25.33.59.5,1.03.5ZM370.08,326.59l6.21-9.1h.77l-6.21,9.1h-.77ZM376.36,326.66c-.4,0-.75-.1-1.07-.31-.31-.2-.55-.49-.73-.86s-.26-.81-.26-1.3.09-.93.26-1.3c.17-.37.42-.66.73-.86s.67-.31,1.07-.31.78.1,1.09.31c.31.2.55.49.71.86.17.37.25.81.25,1.3s-.08.93-.25,1.3-.41.66-.71.86c-.31.2-.67.31-1.09.31ZM376.36,326.07c.42,0,.77-.17,1.02-.5.26-.33.38-.79.38-1.38s-.13-1.05-.38-1.38c-.26-.33-.6-.5-1.02-.5s-.76.17-1.02.5c-.26.33-.38.8-.38,1.38s.13,1.05.38,1.38c.26.33.6.5,1.02.5Z" fill="#fff" stroke-width="0"/>
    </g>
  </g>
  <g id="PR6">
    <rect x="346.27" y="226.98" width="44.45" height="25.52" rx="12" ry="12" fill="#052962" opacity=".71" stroke-width="0"/>
    <g>
      <path d="M363.81,244.14c-.81,0-1.49-.18-2.04-.54-.56-.36-.98-.88-1.26-1.56-.29-.68-.43-1.5-.43-2.45,0-1.03.18-1.9.53-2.59s.84-1.22,1.46-1.58,1.35-.53,2.17-.53c.41,0,.8.04,1.17.12s.7.2.99.38l-.38.75c-.23-.16-.5-.27-.81-.33-.3-.06-.62-.1-.96-.1-.98,0-1.76.31-2.35.94s-.88,1.56-.88,2.79c0,.19.01.43.03.71.02.28.07.56.15.84l-.33-.25c.1-.45.28-.83.56-1.15s.62-.56,1.04-.72c.42-.16.87-.25,1.36-.25.61,0,1.14.11,1.6.34s.82.54,1.08.95c.26.41.39.89.39,1.44s-.13,1.06-.4,1.48c-.27.42-.64.75-1.11.98-.47.23-1,.34-1.59.34ZM363.77,243.35c.43,0,.82-.08,1.15-.24.33-.16.6-.39.79-.69.19-.3.29-.65.29-1.05,0-.6-.21-1.07-.62-1.43-.41-.35-.97-.53-1.67-.53-.47,0-.88.09-1.22.26s-.62.41-.82.71c-.2.3-.3.64-.3,1.02,0,.33.09.64.27.94.18.3.45.54.81.73.36.19.8.28,1.32.28Z" fill="#fff" stroke-width="0"/>
      <path d="M369.9,239.84c-.4,0-.75-.1-1.07-.31s-.55-.49-.72-.86-.25-.81-.25-1.3.08-.93.25-1.3c.17-.37.41-.66.72-.86s.67-.31,1.07-.31.78.1,1.09.31.55.49.72.86c.17.37.26.8.26,1.31s-.09.93-.26,1.3-.41.66-.72.86-.67.31-1.09.31ZM369.92,239.26c.42,0,.76-.17,1.02-.5.26-.33.38-.79.38-1.38s-.13-1.05-.38-1.38c-.26-.33-.6-.5-1.02-.5s-.78.17-1.03.5c-.25.33-.38.8-.38,1.38s.13,1.05.38,1.38c.25.33.59.5,1.03.5ZM369.21,244.07l6.21-9.1h.77l-6.21,9.1h-.77ZM375.49,244.13c-.4,0-.75-.1-1.07-.31-.31-.2-.55-.49-.73-.86s-.26-.81-.26-1.3.09-.93.26-1.3c.17-.37.42-.66.73-.86s.67-.31,1.07-.31.78.1,1.09.31c.31.2.55.49.71.86.17.37.25.81.25,1.3s-.08.93-.25,1.3-.41.66-.71.86c-.31.2-.67.31-1.09.31ZM375.49,243.55c.42,0,.77-.17,1.02-.5.26-.33.38-.79.38-1.38s-.13-1.05-.38-1.38c-.26-.33-.6-.5-1.02-.5s-.76.17-1.02.5c-.26.33-.38.8-.38,1.38s.13,1.05.38,1.38c.26.33.6.5,1.02.5Z" fill="#fff" stroke-width="0"/>
    </g>
  </g>
</svg>